<?xml version="1.0" standalone="no"?>
<!DOCTYPE svg PUBLIC "-//W3C//DTD SVG 20010904//EN"
 "http://www.w3.org/TR/2001/REC-SVG-20010904/DTD/svg10.dtd">
<svg version="1.0" xmlns="http://www.w3.org/2000/svg"
 width="500.000000pt" height="500.000000pt" viewBox="0 0 500.000000 500.000000"
 preserveAspectRatio="xMidYMid meet">

<g transform="translate(0.000000,500.000000) scale(0.100000,-0.100000)"
fill="#000000" stroke="none">
<path d="M1935 4813 c-278 -59 -543 -286 -704 -604 -60 -119 -120 -287 -146
-411 -14 -65 -14 -90 1 -76 3 3 12 35 20 69 21 94 63 215 101 294 18 38 33 65
33 60 1 -6 9 8 20 30 11 22 19 36 20 31 0 -5 8 0 18 11 16 19 62 27 62 11 0
-4 7 -8 15 -8 9 0 18 -6 21 -14 3 -8 12 -12 20 -9 8 3 14 0 14 -7 0 -6 -5 -8
-12 -4 -8 5 -9 2 -5 -10 4 -10 2 -26 -3 -37 -6 -10 -9 -19 -7 -19 2 0 25 35
50 78 25 43 69 110 98 148 76 100 77 103 33 62 -22 -21 -45 -38 -52 -38 -7 0
-12 -5 -12 -11 0 -5 6 -7 13 -3 7 5 6 0 -3 -11 -13 -16 -15 -16 -18 -2 -3 15
-5 16 -19 1 -12 -12 -18 -13 -27 -3 -8 8 -8 13 2 16 6 3 12 13 12 24 0 10 5
19 10 19 6 0 10 5 10 11 0 6 -8 8 -19 4 -23 -7 -53 4 -45 16 3 6 15 7 27 4 12
-2 16 -2 10 1 -28 13 -9 45 75 125 226 218 495 284 782 193 182 -57 373 -239
492 -469 117 -227 191 -548 168 -729 -11 -89 -36 -189 -56 -228 -20 -39 -18
-46 18 -53 55 -13 302 -97 342 -117 l39 -20 -6 -63 c-8 -79 -30 -135 -54 -135
-10 0 -63 18 -118 40 -55 21 -171 67 -259 101 -126 49 -168 70 -207 105 -28
24 -54 44 -59 44 -6 0 -10 6 -10 14 0 8 -3 16 -7 18 -5 2 -15 16 -23 32 -8 16
-35 40 -59 53 -51 27 -187 67 -200 58 -5 -3 -11 -1 -13 3 -3 9 -73 26 -503
127 -175 40 -442 93 -574 112 -30 4 -54 12 -53 16 6 20 -31 35 -124 49 -87 13
-112 22 -175 59 -58 34 -83 43 -117 43 -91 -2 -172 -112 -172 -237 0 -94 18
-133 75 -158 44 -19 48 -20 129 -3 82 16 195 14 222 -4 6 -4 15 -70 21 -147
19 -224 68 -410 163 -612 45 -94 111 -191 211 -305 36 -42 39 -49 23 -55 -10
-4 -28 -18 -40 -32 -32 -38 -24 -87 21 -127 62 -55 248 -133 358 -149 62 -10
72 11 12 26 -25 6 -44 13 -43 15 2 2 154 -12 338 -31 386 -40 408 -41 417 -20
3 9 3 18 1 21 -3 2 -74 13 -159 24 -85 11 -185 24 -224 29 l-70 9 88 -2 c57
-2 87 1 87 8 0 6 7 3 14 -7 14 -18 32 -24 21 -7 -3 6 -2 10 4 10 5 0 12 -6 14
-12 4 -10 8 -10 15 1 7 10 22 12 56 7 37 -6 47 -4 52 9 9 22 -8 38 -79 74 -62
31 -142 45 -459 78 -36 3 -59 11 -62 20 -3 8 -1 11 4 8 6 -3 10 -1 10 4 0 6
-21 11 -49 11 -27 0 -56 3 -65 6 -11 4 -16 0 -16 -12 0 -17 -1 -17 -13 1 -9
11 -19 15 -27 10 -8 -5 -11 -4 -7 2 4 6 -16 13 -51 17 -55 7 -59 9 -136 89
-108 112 -158 183 -223 311 -96 190 -144 363 -167 597 l-12 127 24 -9 c18 -7
31 -5 49 6 13 9 21 20 19 24 -6 9 6 8 164 -20 224 -40 329 -62 745 -155 441
-100 511 -116 691 -165 l111 -31 -10 -56 c-5 -31 -7 -113 -4 -182 5 -132 32
-246 77 -318 11 -18 20 -44 20 -58 0 -70 78 -156 184 -203 71 -32 112 -79 148
-171 20 -49 23 -73 23 -215 0 -89 -6 -191 -13 -230 -13 -69 -13 -70 11 -91
l25 -22 -39 -142 c-27 -99 -39 -164 -39 -209 0 -131 41 -275 97 -341 48 -56
55 -82 61 -222 l5 -126 -77 -7 c-70 -7 -82 -5 -135 19 -97 43 -170 32 -250
-40 -79 -71 -96 -167 -47 -261 27 -54 94 -93 159 -93 50 0 132 27 165 55 16
13 49 31 73 39 53 17 141 27 133 15 -9 -16 74 -10 90 6 8 8 21 15 29 15 31 0
40 28 33 103 -14 146 -14 146 -58 158 l-39 10 6 63 c6 56 4 71 -20 124 -15 34
-36 69 -46 78 -10 9 -16 20 -14 25 3 4 1 10 -5 14 -5 3 -10 21 -11 38 0 18 -6
46 -12 62 -21 53 -70 135 -77 130 -15 -9 -33 97 -27 154 4 32 28 111 57 185
28 70 49 134 47 141 -4 8 2 10 18 7 34 -6 42 17 62 167 9 72 20 131 23 131 6
0 84 -218 247 -695 48 -137 96 -264 109 -281 33 -45 75 -61 197 -75 l108 -12
34 33 c19 18 31 38 28 43 -3 6 -2 7 4 4 5 -3 32 16 59 44 l48 49 -48 145 c-26
80 -51 143 -56 140 -4 -3 -6 3 -3 13 2 10 -2 34 -10 53 -14 32 -15 32 -17 9
-2 -25 -2 -25 -12 4 -7 18 -7 31 -1 35 6 4 1 31 -13 71 -12 36 -23 61 -23 55
-2 -12 -21 16 -21 30 0 6 5 3 10 -5 5 -8 10 -10 10 -5 0 18 -17 38 -27 32 -5
-3 -10 -1 -10 6 0 7 -3 19 -5 27 -3 8 -3 12 -1 8 3 -5 9 -8 14 -8 16 0 -28 93
-47 101 -16 7 -17 8 -2 8 16 1 16 5 3 47 -16 54 -29 72 -21 29 6 -27 5 -27 -7
5 -10 24 -16 30 -20 20 -3 -8 -4 -3 -1 13 4 18 2 27 -6 27 -9 0 -11 12 -7 39
4 29 1 41 -10 45 -26 10 -33 7 -32 -16 1 -17 2 -19 6 -5 2 9 8 17 13 17 14 0
21 -18 10 -25 -5 -3 -10 -15 -10 -25 0 -10 -5 -22 -12 -26 -8 -5 -9 -1 -5 12
7 18 7 18 -8 0 -17 -23 -19 -36 -5 -36 6 0 10 -15 10 -32 0 -18 6 -45 14 -59
11 -23 11 -29 -3 -47 -9 -12 -25 -20 -35 -18 -25 4 -37 37 -19 54 7 7 13 21
12 30 0 14 -2 13 -9 -3 -5 -11 -9 -14 -9 -7 -1 7 -8 20 -16 29 -8 8 -13 18
-10 23 3 4 -4 10 -15 13 -23 6 -39 -12 -20 -23 7 -5 8 -10 2 -14 -9 -5 -44 78
-57 139 -4 17 -16 50 -27 74 -10 24 -17 50 -14 58 3 8 2 12 -3 9 -5 -3 -11 0
-14 8 -4 10 0 12 14 9 10 -3 19 -9 19 -14 0 -5 9 -9 20 -9 13 0 22 9 26 28 4
15 10 29 14 32 4 3 3 40 -2 83 -5 49 -4 85 2 95 8 14 10 14 11 2 0 -8 5 -2 9
14 9 29 -9 63 -25 48 -4 -4 -2 3 4 15 10 19 9 22 -4 17 -8 -4 -15 -1 -15 5 0
6 6 11 13 11 9 0 8 3 -2 9 -8 5 -10 14 -6 21 5 8 4 11 -2 7 -13 -8 -26 20 -16
35 3 7 1 8 -5 4 -13 -8 -28 37 -17 53 3 6 2 11 -4 11 -6 0 -8 8 -5 18 5 14 4
14 -5 2 -5 -8 -13 -11 -17 -7 -4 3 -1 15 7 24 7 10 1 7 -14 -6 -22 -20 -25
-27 -14 -40 10 -14 10 -14 -3 -4 -10 8 -21 9 -30 3 -32 -20 -30 -8 5 40 l37
50 -27 0 c-59 0 -112 47 -158 141 -14 30 -47 78 -72 108 -32 37 -43 57 -36 65
11 13 9 42 -4 53 -4 4 -5 2 -1 -4 17 -30 -15 -10 -38 23 -16 24 -26 31 -30 22
-3 -7 -3 7 -1 32 3 25 8 68 11 95 3 32 0 59 -8 75 -13 24 -12 26 16 35 20 7
45 32 75 74 33 48 40 63 26 57 -18 -6 -17 -5 3 14 23 21 30 36 12 25 -9 -6
-14 8 -11 28 2 11 -111 241 -122 248 -5 4 -6 12 -2 19 5 9 4 11 -3 6 -7 -4
-12 -1 -12 9 0 10 5 13 12 9 7 -5 8 -3 4 5 -5 7 -14 10 -22 7 -7 -3 -18 4 -24
14 -8 16 -8 20 4 20 10 0 12 7 8 22 -3 12 -7 17 -10 10 -7 -23 -19 -12 -32 31
-7 23 -14 46 -14 52 -1 5 -7 16 -14 24 -7 7 -11 20 -8 27 3 7 1 16 -5 20 -22
13 -44 95 -29 104 6 4 -11 29 -38 57 -26 28 -46 56 -44 61 1 5 -11 25 -28 43
-16 18 -30 39 -30 46 0 7 -6 13 -14 13 -8 0 -13 10 -13 23 0 21 -19 50 -60 92
-7 7 -9 15 -6 19 4 3 -2 6 -13 6 -14 0 -16 2 -5 9 20 13 -4 24 -49 23 -31 -1
-39 3 -55 30 -66 113 -283 263 -485 337 -138 50 -301 63 -435 34z m-671 -1272
c2 2 8 13 15 24 11 18 12 17 6 -10 -9 -44 -21 -50 -40 -21 -21 32 -31 33 -38
4 -4 -12 -9 -20 -12 -17 -3 3 0 21 7 39 l11 33 24 -27 c13 -16 25 -27 27 -25z
m74 3 c12 -4 22 -10 22 -16 0 -5 -8 -4 -19 2 -29 15 -48 12 -26 -4 11 -8 23
-12 27 -10 5 3 8 0 8 -5 0 -14 -47 -14 -55 -1 -8 13 1 40 12 40 4 0 18 -3 31
-6z m39 -23 c-3 -13 1 -21 12 -24 14 -4 14 -5 -1 -6 -21 -1 -30 12 -22 33 9
23 17 20 11 -3z m151 -15 c48 -8 63 -18 52 -36 -8 -13 -10 -12 -10 3 0 9 -7
17 -15 17 -8 0 -18 0 -22 1 -17 1 -13 -20 4 -24 17 -4 17 -5 0 -6 -11 -1 -21
7 -24 19 -7 28 -43 37 -60 14 -12 -17 -13 -17 -13 1 0 18 -1 18 -15 -1 -14
-18 -14 -18 -8 3 5 23 23 24 111 9z m132 -7 c11 -7 6 -8 -19 -4 -23 5 -31 4
-27 -4 4 -6 16 -11 27 -11 21 0 26 -28 6 -36 -7 -2 -24 0 -38 6 -22 10 -21 10
9 6 38 -6 44 9 7 18 -31 8 -33 36 -2 36 12 0 29 -5 37 -11z m25 -29 c-4 -6 6
-10 22 -11 15 0 22 -3 15 -6 -10 -4 -10 -8 0 -21 12 -15 10 -15 -14 0 -20 13
-28 14 -31 5 -3 -6 -6 0 -6 16 -1 15 4 27 10 27 5 0 7 -4 4 -10z m73 -27 c-2
-11 6 -19 22 -24 21 -6 22 -7 5 -8 -26 -1 -45 17 -38 35 7 19 14 17 11 -3z
m58 -38 c-3 -8 -13 -15 -23 -15 -17 1 -17 1 0 11 9 5 17 18 18 27 0 11 2 12 6
4 3 -7 2 -19 -1 -27z m1298 -1030 c32 -32 69 -57 101 -68 109 -39 109 -39 128
-108 10 -35 25 -81 34 -102 9 -20 13 -40 10 -43 -4 -4 -11 6 -17 22 -27 74
-95 151 -153 175 -86 34 -160 108 -171 171 -2 15 -7 33 -11 40 -3 7 2 2 11
-12 10 -14 41 -48 68 -75z m472 50 c-11 -8 -25 -15 -30 -15 -6 0 -2 7 8 15 11
8 25 15 30 15 6 0 2 -7 -8 -15z m-1684 -265 c251 -28 326 -40 252 -40 -35 0
-442 46 -517 59 -108 18 3 10 265 -19z m1512 -190 c10 -41 12 -68 6 -75 -6 -7
-7 -14 -4 -17 2 -3 9 -57 14 -119 8 -99 7 -115 -7 -131 -9 -10 -13 -21 -9 -25
4 -4 11 -1 16 7 6 8 10 10 10 4 0 -6 -3 -14 -7 -18 -4 -4 -7 -19 -8 -33 0 -17
-6 -27 -19 -29 -29 -4 -48 7 -41 25 4 9 9 38 11 64 2 26 9 69 15 95 12 53 14
230 3 288 -11 61 4 35 20 -36z m447 -307 c1 -17 2 -17 6 0 5 19 23 23 23 5 0
-7 -7 -21 -14 -31 -13 -16 -15 -16 -24 13 -7 18 -7 30 -1 30 5 0 10 -8 10 -17z
m59 -102 c0 -6 -4 -11 -10 -11 -5 0 -10 4 -10 9 0 5 -3 18 -7 28 -6 17 -6 17
10 1 9 -9 17 -21 17 -27z m-591 -601 c11 -24 11 -24 -3 -6 -9 11 -16 24 -16
30 0 12 5 7 19 -24z m131 -412 c0 -54 -3 -68 -15 -68 -12 0 -15 17 -15 93 1
85 2 90 15 67 8 -15 14 -53 15 -92z"/>
<path d="M3290 3799 c0 -5 9 -9 20 -9 11 0 20 2 20 4 0 2 -9 6 -20 9 -11 3
-20 1 -20 -4z"/>
<path d="M3434 2858 c-3 -5 3 -12 15 -15 11 -3 19 -9 16 -13 -3 -4 2 -13 10
-20 13 -11 15 -9 11 11 -3 13 -5 27 -5 30 -2 12 -41 17 -47 7z"/>
<path d="M3857 2211 c-3 -13 -1 -18 9 -14 7 2 10 11 7 19 -7 19 -10 18 -16 -5z"/>
<path d="M3891 2144 c0 -11 3 -14 6 -6 3 7 2 16 -1 19 -3 4 -6 -2 -5 -13z"/>
<path d="M3846 1999 c-8 -42 0 -50 9 -9 4 17 5 34 2 36 -2 3 -7 -10 -11 -27z"/>
<path d="M2008 1963 c6 -2 18 -2 25 0 6 3 1 5 -13 5 -14 0 -19 -2 -12 -5z"/>
<path d="M2113 1953 c9 -2 25 -2 35 0 9 3 1 5 -18 5 -19 0 -27 -2 -17 -5z"/>
<path d="M3780 1950 c0 -5 5 -10 10 -10 6 0 10 5 10 10 0 6 -4 10 -10 10 -5 0
-10 -4 -10 -10z"/>
<path d="M2238 1943 c7 -3 16 -2 19 1 4 3 -2 6 -13 5 -11 0 -14 -3 -6 -6z"/>
<path d="M3917 1883 c-4 -3 -7 -20 -7 -36 0 -38 9 -31 14 11 4 34 3 36 -7 25z"/>
<path d="M3902 1724 c-7 -8 -8 -14 -3 -14 10 0 25 19 20 25 -2 1 -10 -3 -17
-11z"/>
<path d="M3940 1650 c0 -5 5 -10 11 -10 5 0 7 5 4 10 -3 6 -8 10 -11 10 -2 0
-4 -4 -4 -10z"/>
</g>
</svg>
