<?xml version="1.0" encoding="utf-8"?>
<!-- Generator: Adobe Illustrator 27.5.0, SVG Export Plug-In . SVG Version: 6.00 Build 0)  -->
<svg version="1.1" xmlns="http://www.w3.org/2000/svg" xmlns:xlink="http://www.w3.org/1999/xlink" x="0px" y="0px"
	 viewBox="0 0 1200 800" style="enable-background:new 0 0 1200 800;" xml:space="preserve">
<g id="bg">
	
		<rect x="200" y="-200" transform="matrix(-1.836970e-16 1 -1 -1.836970e-16 1000 -200)" style="fill:#FAF7F2;" width="800" height="1200"/>
</g>
<g id="object">
	<g>
		<defs>
			
				<rect id="SVGID_1_" x="200" y="-200" transform="matrix(-1.836970e-16 1 -1 -1.836970e-16 1000 -200)" width="800" height="1200"/>
		</defs>
		<clipPath id="SVGID_00000091724787031186895370000003564911109417829541_">
			<use xlink:href="#SVGID_1_"  style="overflow:visible;"/>
		</clipPath>
		<g style="clip-path:url(#SVGID_00000091724787031186895370000003564911109417829541_);">
			<g>
				<g>
					<path style="fill:#BD562B;" d="M96.254,218.657c3.83-2.251,7.394-4.952,10.668-8.015c-2.733,7.653-4.167,15.494-3.907,23.746
						c0.398,12.655,4.257,25.511,8.449,38.106c0.126,0.377,0.252,0.754,0.379,1.131c11.89-11.42,21.135-24.196,25.055-38.08
						c0.817-2.895,1.384-5.849,1.756-8.834c1.846,2.162,3.751,4.274,5.721,6.327c13.262,13.822,39.45,29.523,52.065,37.32
						c-2.779-24.104-10.381-46.543-22.541-66.385c-0.751-1.226-1.531-2.435-2.323-3.636c3.781,0.604,7.632,0.866,11.575,0.743
						c12.655-0.396,25.51-4.249,38.105-8.435c0.377-0.125,0.754-0.252,1.131-0.378c-11.422-11.879-24.199-21.115-38.082-25.032
						c-6.371-1.797-13.005-2.484-19.713-2.15c2.667-2.005,5.167-4.206,7.454-6.613c8.611-9.062,14.348-21.055,18.068-34.125
						c-0.324,0.095-0.649,0.19-0.973,0.286c-10.818,3.201-21.698,6.74-31.088,12.427c-9.307,5.636-16.414,13.352-22.395,22.651
						c-3.725,5.792-4.445,8.732-9.514,18.771c0,0,0.001,0,0.001,0c-0.001,0.001-0.002,0.002-0.002,0.003
						c0-0.001,0.001-0.002,0.001-0.003c-10.926,2.662-13.954,2.698-20.439,5.014c-10.413,3.718-19.538,8.893-27.136,16.681
						c-7.666,7.857-13.578,17.652-19.147,27.464c-0.167,0.294-0.333,0.588-0.499,0.882
						C72.496,227.861,85.477,224.991,96.254,218.657z"/>
					<g>
						<path style="fill:#BD562B;" d="M97.201,220.276c3.971-2.413,7.615-5.179,11.047-8.308c-1.045-0.608-2.089-1.216-3.134-1.824
							c-7.493,21.76-2.15,42.863,4.92,63.98c0.446,1.331,2.084,1.848,3.134,0.827c13.476-13.104,24.664-28.728,27.293-47.741
							c-1.045,0.276-2.089,0.552-3.134,0.827c16.033,18.572,37.502,31.184,58.165,43.941c1.11,0.685,2.994-0.181,2.821-1.619
							c-3.037-25.226-11.167-49.639-25.12-70.967c-0.706,0.918-1.412,1.836-2.117,2.754c17.844,2.573,35.022-2.457,51.808-8.07
							c1.331-0.445,1.849-2.085,0.827-3.134c-16.02-16.457-35.454-28.582-59.121-27.731c0.315,1.165,0.631,2.329,0.946,3.494
							c13.696-10.576,21.598-25.476,26.384-41.858c0.398-1.361-0.944-2.707-2.306-2.307c-15.402,4.53-31.107,9.743-43.069,20.925
							c-10.371,9.695-15.804,21.65-22.021,34.072c-0.595,1.189,0.108,2.907,1.619,2.821c0,0,0.001,0,0.001,0
							c-0.54-0.94-1.079-1.881-1.619-2.821c-0.001,0.001-0.002,0.002-0.002,0.003c1.142,0.482,2.285,0.963,3.427,1.445
							c0-0.001,0.001-0.002,0.001-0.003c0.439-1.413-0.966-2.628-2.307-2.307c-13.513,3.243-26.388,5.809-38.187,13.719
							c-13.608,9.123-22.246,23.198-30.154,37.184c-0.667,1.179,0.161,2.903,1.619,2.821
							C72.299,229.649,85.462,226.953,97.201,220.276c2.097-1.193,0.21-4.434-1.893-3.238c-11.167,6.352-23.663,8.898-36.385,9.611
							c0.54,0.94,1.079,1.881,1.619,2.821c7.843-13.872,16.37-27.974,30.136-36.705c11.258-7.14,23.276-9.43,35.964-12.474
							c-0.769-0.769-1.538-1.538-2.306-2.307c0,0.001-0.001,0.002-0.001,0.003c-0.665,2.14,2.263,3.101,3.427,1.445
							c0.001-0.001,0.002-0.002,0.002-0.003c0.805-1.145-0.263-2.898-1.619-2.821c0,0-0.001,0-0.001,0
							c0.54,0.94,1.079,1.881,1.619,2.821c5.836-11.66,10.765-22.892,20.29-32.216c11.666-11.42,27.237-16.551,42.558-21.057
							c-0.769-0.769-1.538-1.538-2.306-2.307c-4.486,15.353-11.783,29.673-24.661,39.617c-1.336,1.031-1.114,3.568,0.946,3.494
							c22.724-0.816,41.111,10.854,56.47,26.633c0.276-1.045,0.552-2.089,0.827-3.134c-16.026,5.359-32.741,10.532-49.814,8.07
							c-1.467-0.212-3.11,1.236-2.117,2.754c13.57,20.744,21.652,44.519,24.608,69.074c0.94-0.54,1.881-1.079,2.821-1.619
							c-20.407-12.598-41.572-25.013-57.406-43.354c-0.854-0.989-2.943-0.553-3.134,0.827
							c-2.551,18.455-13.247,33.367-26.329,46.087c1.045,0.276,2.089,0.552,3.134,0.827c-6.856-20.477-12.2-40.845-4.92-61.986
							c0.645-1.873-1.84-3.004-3.134-1.824c-3.202,2.919-6.584,5.471-10.288,7.722C93.248,218.289,95.131,221.533,97.201,220.276z"
							/>
					</g>
				</g>
			</g>
			<g>
				<g>
					<path style="fill:#BD562B;" d="M868.332,601.006c-4.437,0.226-8.846,0.973-13.164,2.176
						c5.962-5.523,10.858-11.813,14.441-19.25c5.497-11.406,8.018-24.59,10.124-37.696c0.063-0.393,0.125-0.785,0.187-1.178
						c-15.823,4.63-29.927,11.686-39.82,22.185c-2.063,2.19-3.931,4.546-5.641,7.022c-0.637-2.771-1.35-5.524-2.148-8.255
						c-5.371-18.387-21.334-44.416-28.916-57.161c-8.678,22.659-12.31,46.071-10.7,69.286c0.099,1.434,0.232,2.867,0.379,4.298
						c-3.073-2.284-6.367-4.296-9.921-6.01c-11.405-5.498-24.585-8.025-37.688-10.135c-0.392-0.063-0.785-0.125-1.178-0.188
						c4.637,15.813,11.697,29.91,22.198,39.801c4.819,4.539,10.384,8.214,16.487,11.019c-3.292,0.545-6.527,1.341-9.667,2.418
						c-11.825,4.055-22.456,12.038-31.797,21.908c0.331,0.066,0.663,0.131,0.995,0.196c11.072,2.163,22.356,4.054,33.311,3.352
						c10.858-0.696,20.727-4.252,30.33-9.733c5.98-3.414,7.979-5.688,17.114-12.247c0,0-0.001,0-0.001,0
						c0.001-0.001,0.002-0.001,0.004-0.002c-0.001,0.001-0.002,0.001-0.002,0.002c10.919,2.69,13.62,4.058,20.442,5.002
						c10.952,1.516,21.436,1.146,31.774-2.248c10.43-3.424,20.201-9.376,29.674-15.503c0.284-0.184,0.567-0.367,0.85-0.552
						C893.654,603.826,880.817,600.371,868.332,601.006z"/>
					<g>
						<path style="fill:#BD562B;" d="M868.332,599.131c-4.652,0.315-9.151,1.058-13.663,2.243c0.608,1.045,1.216,2.089,1.824,3.134
							c16.709-15.813,21.742-36.959,25.234-58.951c0.212-1.338-0.813-2.753-2.306-2.306c-18.245,5.457-35.33,14.238-46.582,30.068
							c1.142,0.149,2.285,0.299,3.427,0.448c-5.634-23.889-18.822-44.993-31.253-65.864c-0.88-1.478-2.876-1.016-3.427,0.448
							c-8.892,23.6-12.881,48.917-10.387,74.082c0.94-0.54,1.881-1.079,2.821-1.619c-14.409-10.416-32.022-13.781-49.235-16.521
							c-1.337-0.213-2.754,0.813-2.306,2.307c6.581,21.961,18.178,41.79,39.546,51.941c0.149-1.142,0.299-2.285,0.448-3.427
							c-16.822,3.009-30.638,12.665-42.291,24.808c-0.915,0.953-0.608,2.851,0.827,3.134c15.985,3.149,32.567,5.835,48.546,1.217
							c13.42-3.878,23.569-11.826,34.648-19.839c1.012-0.732,1.41-2.601,0-3.238c0,0-0.001,0-0.001,0c0,1.079,0,2.159,0,3.238
							c0.001-0.001,0.003-0.001,0.004-0.002c-0.757-0.982-1.515-1.963-2.272-2.945c-0.001,0.001-0.002,0.002-0.002,0.002
							c-0.975,0.982-0.555,2.788,0.827,3.134c13.624,3.407,26.277,7.106,40.568,5.476c16.173-1.845,30.223-10.272,43.616-18.965
							c1.069-0.694,1.365-2.622,0-3.238C894.724,602.376,881.844,598.644,868.332,599.131c-2.406,0.087-2.417,3.837,0,3.75
							c12.835-0.462,25.104,3.006,36.718,8.251c0-1.079,0-2.159,0-3.238c-13.292,8.626-27.328,17.204-43.476,18.631
							c-13.337,1.179-25.115-2.344-37.818-5.52c0.276,1.045,0.552,2.089,0.827,3.134c0.001-0.001,0.002-0.002,0.002-0.002
							c1.535-1.546-0.404-3.911-2.272-2.945c-0.001,0.001-0.002,0.001-0.004,0.002c-1.174,0.607-1.275,2.662,0,3.238
							c0,0,0.001,0,0.001,0.001c0-1.079,0-2.159,0-3.238c-10.348,7.485-19.711,15.055-32.154,18.977
							c-15.84,4.993-32.215,2.407-48.15-0.733c0.276,1.045,0.552,2.089,0.827,3.134c11.249-11.722,24.397-20.939,40.636-23.844
							c1.546-0.276,1.864-2.754,0.448-3.427c-20.521-9.748-31.503-28.61-37.823-49.7c-0.769,0.769-1.538,1.538-2.306,2.306
							c16.902,2.691,34.186,5.912,48.339,16.143c1.104,0.798,2.956-0.26,2.821-1.619c-2.465-24.874,1.464-49.76,10.253-73.086
							c-1.142,0.149-2.285,0.299-3.427,0.448c12.268,20.597,25.315,41.393,30.875,64.969c0.4,1.695,2.552,1.679,3.427,0.448
							c10.659-14.996,27.101-23.189,44.341-28.345c-0.769-0.769-1.538-1.538-2.307-2.306c-3.383,21.305-8.04,41.937-24.27,57.297
							c-1.386,1.312,0.055,3.599,1.824,3.134c4.177-1.097,8.353-1.817,12.666-2.109
							C870.727,602.719,870.745,598.968,868.332,599.131z"/>
					</g>
				</g>
			</g>
			<g>
				<path style="fill:#E0BCAB;" d="M449.503,399.339c-2.793,1.913-5.673,3.698-8.565,5.456
					c-24.703,15.021-53.472,30.925-82.471,34.992c-11.283,1.582-22.838,0.495-29.564-9.815
					c-12.748-19.54-17.781-47.208-18.99-70.116c-1.247-23.624-2.607-48.596,7.118-70.793c1.43-3.265,3.272-6.592,6.374-8.347
					c23.343-13.203,28.885,39.634,26.183,50.737c4.796-19.71,9.343-34.668,20.956-51.38c2.413-3.473,5.579-6.616,9.577-7.994
					c5.534-1.908,11.999,0.027,16.12,4.186c10.266,10.362,9.338,24.415,7.104,36.959c-0.788,4.423-1.039,11.69-3.375,15.546
					c6.306-10.413,16.907-18.133,28.752-20.941c5.175-1.227,11.539-1.133,14.712,3.134c2.714,3.65,1.895,8.756,0.681,13.139
					c-2.642,9.537-6.583,18.713-11.679,27.195c4.108-6.823,21.898-11.326,29.364-11.417c15.989-0.19,21.382,11.447,16.459,25.818
					C473.721,378.942,462.979,390.106,449.503,399.339z"/>
				<g>
					<path style="fill:#E0BCAB;" d="M448.556,397.72c-23.251,15.68-49.436,30.336-76.702,37.45
						c-11.345,2.96-26.869,6.657-37.009-1.409c-4.826-3.838-7.749-10.106-10.295-15.6c-2.874-6.201-5.074-12.709-6.845-19.305
						c-3.288-12.242-5.067-24.859-5.833-37.5c-0.824-13.597-1.529-27.333-0.386-40.93c0.596-7.084,1.756-14.127,3.76-20.955
						c1.868-6.363,4.103-15.028,10.686-17.944c6.272-2.778,11.288,0.949,14.458,6.299c4.083,6.894,5.879,15.253,6.989,23.102
						c0.896,6.341,1.828,13.682,0.4,20.026c-0.528,2.346,3.04,3.35,3.616,0.997c2.598-10.614,5.381-21.259,9.755-31.303
						c2.098-4.818,4.542-9.483,7.296-13.958c3.468-5.635,7.549-12.482,14.76-13.336c13.25-1.569,19.451,14.14,19.689,24.857
						c0.114,5.097-0.665,10.079-1.454,15.095c-0.761,4.839-0.77,10.097-3.092,14.518c-1.123,2.137,1.949,3.941,3.238,1.893
						c6.711-10.66,20.436-21.811,33.904-20.652c17.769,1.53-0.201,33.701-4.676,41.286c-1.24,2.102,1.897,3.872,3.238,1.893
						c4.208-6.209,14.475-8.444,21.37-9.747c7.617-1.44,17.635-1.22,21.384,6.895c3.746,8.107-0.578,18.245-4.879,25.219
						C466.112,384.044,457.574,391.453,448.556,397.72c-1.968,1.368-0.096,4.62,1.893,3.238
						c10.521-7.312,20.519-16.143,26.545-27.647c4.271-8.153,7.57-19.396,1.962-27.753c-5.008-7.463-14.728-8.274-22.859-6.967
						c-8.457,1.359-20.147,4.186-25.281,11.761c1.079,0.631,2.159,1.262,3.238,1.893c5.214-8.838,9.533-18.412,12.061-28.385
						c1.732-6.834,1.368-14.866-6.258-17.685c-7.087-2.62-15.693,0.481-22.053,3.692c-8.049,4.064-14.667,10.354-19.453,17.958
						c1.079,0.631,2.159,1.262,3.238,1.893c2.78-5.291,2.868-11.601,3.806-17.394c0.946-5.842,1.64-11.769,1.04-17.687
						c-1.083-10.688-7.313-22.917-18.899-24.898c-13.49-2.307-21.074,12.029-26.292,22.044c-6.43,12.339-10.171,25.72-13.464,39.173
						c1.205,0.332,2.411,0.665,3.616,0.997c1.392-6.18,0.719-13.002-0.03-19.216c-0.98-8.136-2.668-16.404-6.19-23.854
						c-2.605-5.511-6.881-11.369-13.427-12.059c-11.01-1.161-16.1,9.542-19.066,18.313c-5.027,14.868-5.801,30.805-5.435,46.373
						c0.345,14.686,1.12,29.447,3.671,43.934c2.489,14.135,6.541,28.297,13.591,40.876c6.271,11.189,15.383,16.453,28.318,15.88
						c16.766-0.742,33.467-6.954,48.598-13.804c16.964-7.68,33.584-17.025,49.025-27.438
						C452.439,399.616,450.565,396.366,448.556,397.72z"/>
				</g>
			</g>
			<g>
				<path style="fill:#A2A05A;" d="M727.682,235.201c-8.773,0.559-10.47,0.89-11.425,11.881
					c-1.135,13.056-0.167,25.133,5.765,37.073c6.577,13.238,17.779,23.927,32.693,28.741c7.669,2.475,24.06,3.032,33.424-1.136
					c5.098-8.871,6.187-25.187,4.486-33.043C786.875,252.155,759.098,233.199,727.682,235.201z"/>
				<g>
					<path style="fill:#A2A05A;" d="M727.682,233.326c-5.248,0.345-10.346,0.702-12.157,6.423
						c-2.821,8.911-2.058,20.247-0.442,29.292c3.542,19.828,17.32,37.342,36.202,44.623c8.142,3.14,17.361,3.596,25.967,2.638
						c3.452-0.385,8.437-0.744,11.387-2.734c2.722-1.835,3.785-6.727,4.579-9.783c4.357-16.767,1.618-33.707-9.394-47.278
						C770.35,239.901,748.66,232.212,727.682,233.326c-2.401,0.128-2.416,3.878,0,3.75c30.367-1.613,64.845,18.474,63.781,52.18
						c-0.122,3.854-0.56,7.702-1.379,11.471c-0.715,3.294-1.471,8.606-4.722,10.104c-6.513,3-15.918,2.504-22.863,1.717
						c-16.767-1.899-31.013-13.996-38.521-28.682c-5.144-10.061-6.677-21.184-6.143-32.371c0.166-3.464-0.21-9.028,1.851-12.05
						c1.673-2.454,5.347-2.194,7.996-2.369C730.077,236.919,730.095,233.167,727.682,233.326z"/>
				</g>
			</g>
			<g>
				<path style="fill:#A2A05A;" d="M271.943,580.437c-1.9-11.773-2.568-14.021-17.534-13.875
					c-17.777,0.173-33.957,3.056-49.305,12.625c-17.015,10.608-29.987,27.13-34.539,47.896c-2.341,10.679-0.952,32.883,5.898,44.983
					c12.644,5.725,34.816,5.065,45.202,1.743C256.78,662.577,278.748,622.596,271.943,580.437z"/>
				<g>
					<path style="fill:#A2A05A;" d="M273.751,579.939c-1.24-7.615-2.685-13.748-11.253-14.904
						c-12.774-1.725-27.401,0.211-39.65,4.007c-25.225,7.818-46.118,28.168-53.161,53.794c-3.014,10.966-2.483,22.794-0.357,33.882
						c0.892,4.651,2.109,12.64,5.514,16.295c3.007,3.227,10.375,3.816,14.499,4.388c23.439,3.247,45.788-3.12,62.296-20.467
						C271.052,636.535,277.95,607.327,273.751,579.939c-0.365-2.378-3.979-1.368-3.616,0.997
						c6.486,42.301-18.326,91.724-65.226,93.469c-5.551,0.207-11.18-0.02-16.666-0.933c-2.404-0.4-4.924-0.844-7.219-1.687
						c-3.776-1.388-4.555-3.533-5.803-7.221c-3.325-9.826-4.405-20.756-3.647-31.081c1.682-22.91,17.975-43.456,37.458-54.446
						c12.857-7.252,27.327-10.069,41.956-10.531c4.276-0.135,11.579-1.187,15.38,1.565c3.076,2.227,3.217,7.491,3.767,10.865
						C270.522,583.312,274.136,582.303,273.751,579.939z"/>
				</g>
			</g>
			<g>
				<path style="fill:#E0BCAB;" d="M1043.071,375.842c-6.453-9.38-7.949-11.047-20.802-4.802
					c-15.267,7.418-28.049,16.521-37.378,31.052c-10.344,16.11-14.78,35.669-10.217,55.447c2.347,10.171,12.623,28.761,23.481,36.4
					c13.25-0.23,32.11-9.865,39.713-16.978C1063.573,452.913,1066.18,409.434,1043.071,375.842z"/>
				<g>
					<path style="fill:#E0BCAB;" d="M1044.689,374.896c-4.724-6.84-8.701-11.324-17.363-8.128
						c-11.085,4.091-21.964,10.845-30.746,18.725c-19.522,17.515-29.423,44.948-24.093,70.8c2.182,10.58,7.946,20.738,14.543,29.17
						c2.602,3.325,5.577,7.105,9.193,9.371c3.822,2.395,10.537-0.028,14.566-1.247c21.561-6.524,38.351-20.995,45.805-42.486
						C1065.463,425.53,1059.588,396.958,1044.689,374.896c-1.343-1.989-4.594-0.115-3.238,1.893
						c12.039,17.828,18.097,39.705,14.597,61.152c-3.078,18.862-13.429,35.754-30.273,45.147c-4.639,2.587-9.515,4.793-14.569,6.437
						c-2.292,0.745-4.625,1.404-6.993,1.856c-3.461,0.659-5.313,0.791-8.159-1.55c-7.446-6.124-12.959-15.909-16.762-24.632
						c-9.203-21.111-3.895-46.467,9.006-64.822c7.195-10.236,17.075-18.068,27.945-24.103c4.662-2.588,9.973-5.911,15.275-6.876
						c5.011-0.911,7.466,3.82,9.932,7.391C1042.814,378.761,1046.066,376.888,1044.689,374.896z"/>
				</g>
			</g>
			<g>
				<g>
					<path style="fill:#222221;" d="M123.999,113.014c-5.044,7.478-18.679,22.287-10.656,31.927
						c3.475,4.176,9.63,4.078,14.565,3.552c8.099-0.863,15.965-3.245,23.881-5.059c-0.769-0.769-1.538-1.538-2.307-2.307
						c-2.422,12.387-6.022,26.732-1.962,39.144c1.64,5.016,6.102,13.266,12.343,10.215c4.354-2.128,7.993-6.291,11.238-9.765
						c5.493-5.88,10.559-12.161,15.493-18.511c12.202-15.704,23.583-32.082,34.215-48.886c7.949-12.564,16.947-25.909,21.571-40.176
						c1.836-5.666,1.557-9.075-4.792-11.218c-14.976-5.055-31.881,7.291-43.798,14.775c0.918,0.374,1.836,0.747,2.754,1.121
						c-1.124-7.821-1.68-15.835-3.716-23.493c-1.24-4.66-3.23-10.499-8.14-12.437c-12.088-4.772-21.393,13.994-26.617,21.475
						c0.855-0.224,1.71-0.448,2.565-0.673c-6.391-3.617-13.164-6.664-20.001-9.324c-10.701-4.163-23.232-8.208-34.835-6.062
						c-9.106,1.684-16.011,8.485-14.638,18.082c1.574,11.006,9.147,21.204,15.718,29.786c5.38,7.026,11.174,13.821,17.411,20.107
						c1.702,1.716,4.354-0.936,2.652-2.652c-11.595-11.687-23.886-25.498-30.101-40.902c-1.521-3.77-3.06-8.502-1.687-12.538
						c1.501-4.412,6.083-6.998,10.378-8.004c10.556-2.472,22.419,1.42,32.245,5.089c7.185,2.683,14.284,5.875,20.967,9.656
						c0.935,0.529,1.978,0.169,2.565-0.673c3.554-5.09,14.701-26.398,23.601-18.887c3.822,3.226,4.718,10.119,5.54,14.726
						c1.048,5.872,1.63,11.819,2.478,17.721c0.172,1.199,1.828,1.703,2.754,1.121c10.544-6.623,23.923-16.576,37.09-15.249
						c7.265,0.732,7.736,2.375,5.766,8.115c-4.24,12.356-11.811,23.923-18.662,34.943c-9.262,14.901-19.178,29.417-29.64,43.501
						c-8.217,11.061-16.685,22.554-26.871,31.919c-1.474,1.355-3.05,2.859-4.849,3.781c-2.602,1.333-3.715-0.806-5.403-3.416
						c-7.415-11.473-2.419-29.134-0.018-41.413c0.277-1.419-0.849-2.641-2.307-2.306c-5.959,1.366-11.861,3.003-17.87,4.142
						c-4.455,0.845-12.606,2.722-16.366-1.015c-3.2-3.181-1.676-7.816,0.034-11.288c2.911-5.91,6.976-11.306,10.648-16.75
						C128.59,112.9,125.343,111.022,123.999,113.014z"/>
				</g>
				<g>
					<path style="fill:#222221;" d="M114.383,72.388c42.216,28.74,84.462,57.436,126.679,86.176c2,1.362,3.878-1.886,1.893-3.238
						c-42.217-28.74-84.462-57.437-126.679-86.176C114.276,67.788,112.398,71.036,114.383,72.388L114.383,72.388z"/>
				</g>
				<g>
					<path style="fill:#222221;" d="M174.314,70.165c-2.054,7.528-2.671,15.129-1.764,22.889c0.411,3.512,1.06,6.989,1.804,10.444
						c0.431,2.002,0.902,3.995,1.373,5.988c0.208,0.879,0.417,1.758,0.626,2.637c0.659,0.738,0.574,0.814-0.255,0.229
						c-0.89,0.664-3.557,0.479-4.771,0.649c-2.044,0.286-4.087,0.579-6.122,0.924c-3.434,0.581-6.855,1.271-10.201,2.249
						c-6.728,1.966-12.865,5.055-18.503,9.217c-1.921,1.418-0.053,4.674,1.893,3.238c6.636-4.899,13.873-8.125,21.912-9.943
						c3.457-0.782,6.958-1.342,10.463-1.849c2.141-0.31,7.187-0.111,8.782-1.572c1.31-1.2,0.763-2.592,0.417-4.138
						c-0.892-3.991-1.918-7.948-2.687-11.967c-1.818-9.496-1.913-18.614,0.647-27.997C178.566,68.831,174.949,67.836,174.314,70.165
						L174.314,70.165z"/>
				</g>
			</g>
			<g>
				<g>
					<path style="fill:#222221;" d="M1037.743,616.376c15.392,4.204,21.572,22.262,22.121,36.54
						c0.277,7.209-1.97,14.466-1.271,21.572c0.355,3.61,1.803,7.996,6.054,8.114c4.559,0.126,8.139-4.141,11.728-6.288
						c6.46-3.864,17.782-4.494,19.695,4.774c3.176,15.386-17.431,16.939-21.944,28.374c-1.33,3.369-1.045,7.152,2.086,9.39
						c3.858,2.758,9.024,0.897,13.009-0.564c6.864-2.516,23.512-11.095,27.567-1.309c6.469,15.613-12.39,27.09-23.877,32.838
						c-15.178,7.595-31.98,12.638-48.641,15.743c-10.375,1.934-20.002,0.277-30.224-2.406c-10.891-2.859-21.75-6.531-32.066-11.078
						c-8.886-3.917-18.127-8.643-24.862-15.796c-3.071-3.263-5.631-7.267-5.998-11.834c-0.475-5.924,2.252-11.572,8.716-11.722
						c9.053-0.211,17.078,5.089,25.667,7.011c6.122,1.37,14.582-0.67,11.518-8.859c-2.793-7.465-12.993-10.645-18.503-15.659
						c-4.492-4.088-5.798-10.183-2.271-15.531c5.033-7.633,12.693-5.188,19.431-2.111c3.816,1.742,9.27,3.901,13.227,1.338
						c3.216-2.082,3.362-6.243,2.969-9.68c-1.664-14.55-4.137-32.316,6.337-44.419
						C1023.041,619.232,1030.149,614.948,1037.743,616.376c2.359,0.444,3.37-3.17,0.997-3.616
						c-12.107-2.277-23.633,6.679-28.326,17.423c-2.94,6.732-3.809,14.609-3.882,21.893c-0.041,4.081,0.263,8.158,0.812,12.2
						c0.365,2.688,1.829,6.884,0.735,9.579c-2.681,6.606-14.611-2.135-19.208-3.054c-5.087-1.018-10.406,0.93-13.982,4.635
						c-7.403,7.669-4.738,18.016,2.884,24.011c3.92,3.083,8.43,5.384,12.247,8.594c4.069,3.421,5.642,9.358-1.731,8.408
						c-9.446-1.217-17.59-7.05-27.321-7.451c-9.854-0.405-14.916,8.076-13.387,17.294c1.492,8.997,9.171,15.61,16.363,20.398
						c8.13,5.413,17.219,9.36,26.347,12.756c6.602,2.456,13.3,4.7,20.084,6.597c7.769,2.173,16.623,4.71,24.78,4.557
						c6.275-0.117,12.826-1.857,18.89-3.293c9.173-2.173,18.236-4.9,27.041-8.273c14.109-5.404,33.865-13.6,39.522-29.091
						c2.157-5.906,1.674-15.193-3.855-19.217c-7.366-5.362-19.404,0.566-26.76,3.279c-2.696,0.995-6.547,2.979-9.483,2.521
						c-5.849-0.912-2.713-7.163-0.073-9.693c4.958-4.753,11.631-6.978,15.897-12.621c6.515-8.618,4.115-22.569-7.819-24.221
						c-5.82-0.806-11.426,1.161-16.089,4.536c-1.119,0.81-2.207,1.671-3.368,2.422c-2.079,1.346-2.883,2.14-4.957,0.581
						c-3.55-2.668-1.343-9.735-0.863-13.501c1.819-14.271-0.709-30.098-10.017-41.462c-3.815-4.657-8.641-8.211-14.482-9.807
						C1036.409,612.123,1035.414,615.74,1037.743,616.376z"/>
				</g>
				<g>
					<path style="fill:#222221;" d="M1032.899,645.097c-1.617,34.187-3.267,68.336-3.564,102.567c-0.021,2.414,3.729,2.416,3.75,0
						c0.297-34.231,1.947-68.38,3.564-102.567C1036.763,642.685,1033.013,642.69,1032.899,645.097L1032.899,645.097z"/>
				</g>
				<g>
					<path style="fill:#222221;" d="M996.593,694.317c12.063,7.843,23.169,16.902,33.291,27.126c1.7,1.717,4.352-0.934,2.652-2.652
						c-10.343-10.446-21.727-19.7-34.05-27.712C996.456,689.76,994.575,693.005,996.593,694.317L996.593,694.317z"/>
				</g>
				<g>
					<path style="fill:#222221;" d="M1063.934,691.079c-12.323,8.012-23.708,17.266-34.05,27.712c-1.7,1.717,0.95,4.37,2.652,2.652
						c10.123-10.224,21.228-19.283,33.291-27.126C1067.843,693.006,1065.965,689.758,1063.934,691.079L1063.934,691.079z"/>
				</g>
				<g>
					<path style="fill:#222221;" d="M972.762,733.08c20.228,8.78,41.698,17.881,64.158,17.638
						c22.501-0.243,43.793-9.761,63.872-18.994c2.19-1.007,0.287-4.24-1.893-3.238c-19.443,8.941-40.182,18.248-61.979,18.482
						c-21.755,0.234-42.672-8.621-62.266-17.126C972.464,728.891,970.552,732.121,972.762,733.08L972.762,733.08z"/>
				</g>
			</g>
			<g>
				<g>
					<path style="fill:#222221;" d="M369.717,354.876c8.955-8.63,17.45-18.126,23.178-29.258c3.613-7.022,10.13-21.397,4.294-28.706
						c-9.888-12.383-25.99,6.324-31.511,14.152c1.079,0.631,2.159,1.262,3.238,1.893c5.458-7.893,10.544-16.109,14.132-25.04
						c2.572-6.402,5.41-14.627,3.744-21.603c-3.929-16.452-25.397-7.815-32.971,0.476c0.884,0.884,1.768,1.768,2.652,2.652
						c8.157-10.247,3.704-31.282-5.807-39.305c-5.179-4.368-13.16-5.077-18.998-1.546c-6.315,3.821-9.551,11.593-10.912,18.532
						c-1.398,7.131-1.797,16.295,2.997,22.318c0.884-0.884,1.768-1.768,2.652-2.652c-7.574-8.291-29.042-16.929-32.971-0.476
						c-1.608,6.73,1.017,14.587,3.424,20.809c3.575,9.236,8.839,17.717,14.452,25.834c1.079-0.631,2.159-1.262,3.238-1.893
						c-4.587-6.503-10.559-13.577-18.03-16.774c-3.294-1.409-6.967-1.829-10.221-0.076c-4.835,2.605-5.638,7.392-5.036,12.454
						c1.605,13.508,8.974,25.543,17.53,35.799c8.925,10.698,19.704,21.747,32.911,26.932
						C345.59,374.852,360.094,363.935,369.717,354.876c1.761-1.658-0.895-4.306-2.652-2.652
						c-5.568,5.242-11.636,9.993-18.791,12.869c-7.077,2.844-12.646,2.342-19.355-1.107c-13.051-6.71-24.504-19.207-32.815-31.138
						c-3.769-5.411-20.798-37.163-4.383-36.025c7.991,0.554,15.326,10.092,19.588,16.133c1.377,1.952,4.619,0.104,3.238-1.893
						c-7.565-10.941-15.068-22.979-17.378-36.296c-1.272-7.33,1.252-14.78,10.047-14.094c6.196,0.483,12.419,4.261,16.537,8.768
						c1.662,1.819,4.118-0.809,2.652-2.652c-4.291-5.391-3.07-14.999-1.473-21.111c1.971-7.538,6.478-15.493,15.181-15.493
						c8.508,0,13.021,7.619,15.054,15.009c1.709,6.21,3.038,16.087-1.346,21.595c-1.466,1.842,0.988,4.472,2.652,2.652
						c4.13-4.521,10.327-8.272,16.537-8.768c8.795-0.702,11.317,6.773,10.047,14.094c-2.31,13.316-9.813,25.356-17.378,36.296
						c-1.379,1.995,1.859,3.847,3.238,1.893c2.859-4.053,6.211-7.895,9.994-11.11c5-4.25,17.041-9.34,16.521,2.521
						c-0.831,18.961-15.447,35.407-28.365,47.857C365.324,353.902,367.978,356.552,369.717,354.876z"/>
				</g>
				<g>
					<path style="fill:#222221;" d="M339.15,290.411c-1.853,38.798-2.283,77.646-1.288,116.475c0.062,2.409,3.812,2.418,3.75,0
						c-0.995-38.829-0.565-77.677,1.288-116.475C343.015,287.999,339.265,288.005,339.15,290.411L339.15,290.411z"/>
				</g>
			</g>
			<g>
				<path style="fill:#E0BCAB;" d="M886.003,16.233c-2.793,1.913-5.673,3.698-8.565,5.456
					c-24.703,15.021-53.472,30.925-82.471,34.992c-11.283,1.582-22.838,0.495-29.564-9.815
					c-12.748-19.541-17.781-47.208-18.99-70.116c-1.247-23.624-2.607-48.596,7.117-70.792c1.43-3.265,3.272-6.592,6.374-8.347
					c23.343-13.203,28.885,39.634,26.183,50.737c4.797-19.71,9.344-34.668,20.956-51.38c2.413-3.473,5.579-6.616,9.577-7.994
					c5.534-1.908,11.999,0.027,16.12,4.186c10.266,10.362,9.338,24.415,7.104,36.959c-0.788,4.423-1.039,11.69-3.375,15.546
					c6.306-10.413,16.907-18.133,28.752-20.941c5.175-1.227,11.539-1.134,14.712,3.134c2.714,3.65,1.895,8.756,0.681,13.139
					c-2.642,9.537-6.583,18.713-11.679,27.195c4.107-6.823,21.898-11.326,29.364-11.417c15.989-0.19,21.382,11.447,16.459,25.818
					C910.221-4.165,899.479,7,886.003,16.233z"/>
				<g>
					<path style="fill:#E0BCAB;" d="M885.056,14.614c-23.251,15.68-49.436,30.336-76.702,37.45
						c-11.345,2.96-26.869,6.657-37.009-1.409c-4.826-3.838-7.749-10.106-10.295-15.6c-2.874-6.201-5.074-12.709-6.845-19.305
						c-3.288-12.243-5.067-24.859-5.833-37.5c-0.824-13.597-1.529-27.333-0.386-40.93c0.596-7.084,1.755-14.127,3.76-20.955
						c1.868-6.363,4.103-15.028,10.686-17.944c6.272-2.778,11.289,0.949,14.458,6.299c4.083,6.894,5.88,15.253,6.989,23.102
						c0.896,6.341,1.828,13.682,0.4,20.026c-0.528,2.346,3.04,3.35,3.616,0.997c2.598-10.614,5.381-21.259,9.755-31.303
						c2.098-4.817,4.542-9.483,7.296-13.958c3.468-5.635,7.549-12.482,14.76-13.336c13.25-1.569,19.451,14.14,19.689,24.857
						c0.114,5.097-0.665,10.079-1.454,15.095c-0.761,4.839-0.77,10.097-3.092,14.518c-1.123,2.137,1.949,3.941,3.238,1.893
						c6.711-10.66,20.436-21.811,33.904-20.652c17.769,1.53-0.201,33.701-4.676,41.286c-1.24,2.101,1.897,3.872,3.238,1.893
						c4.208-6.209,14.475-8.444,21.37-9.747c7.617-1.44,17.635-1.22,21.384,6.895c3.746,8.107-0.578,18.245-4.879,25.219
						C902.612,0.938,894.075,8.346,885.056,14.614c-1.968,1.368-0.096,4.62,1.893,3.238c10.522-7.312,20.519-16.143,26.545-27.647
						c4.271-8.153,7.57-19.396,1.962-27.753c-5.008-7.463-14.728-8.274-22.859-6.967c-8.457,1.36-20.147,4.186-25.281,11.761
						c1.079,0.631,2.159,1.262,3.238,1.893c5.214-8.838,9.533-18.412,12.061-28.385c1.732-6.834,1.368-14.866-6.258-17.685
						c-7.087-2.62-15.693,0.481-22.053,3.692c-8.05,4.064-14.667,10.354-19.453,17.958c1.079,0.631,2.159,1.262,3.238,1.893
						c2.78-5.291,2.868-11.602,3.806-17.394c0.946-5.842,1.64-11.769,1.04-17.687c-1.083-10.688-7.313-22.917-18.899-24.898
						c-13.49-2.307-21.073,12.029-26.292,22.044c-6.43,12.339-10.171,25.72-13.464,39.173c1.205,0.332,2.411,0.665,3.616,0.997
						c1.391-6.18,0.719-13.002-0.03-19.216c-0.98-8.136-2.669-16.404-6.19-23.854c-2.605-5.511-6.881-11.369-13.427-12.059
						c-11.01-1.161-16.1,9.542-19.066,18.313c-5.027,14.868-5.801,30.805-5.435,46.373c0.345,14.686,1.12,29.447,3.671,43.934
						c2.489,14.135,6.541,28.297,13.591,40.876c6.271,11.189,15.383,16.453,28.318,15.88c16.766-0.742,33.467-6.954,48.598-13.804
						c16.964-7.68,33.584-17.025,49.025-27.438C888.939,16.509,887.065,13.259,885.056,14.614z"/>
				</g>
			</g>
			<g>
				<g>
					<path style="fill:#222221;" d="M772.332,5.259c8.955-8.629,17.45-18.126,23.178-29.258c3.613-7.022,10.13-21.397,4.294-28.705
						c-9.888-12.383-25.99,6.324-31.511,14.152c1.079,0.631,2.159,1.262,3.238,1.893c5.458-7.893,10.544-16.109,14.132-25.04
						c2.572-6.402,5.41-14.628,3.744-21.603c-3.929-16.452-25.397-7.815-32.971,0.476c0.884,0.884,1.768,1.768,2.652,2.652
						c8.157-10.247,3.704-31.282-5.807-39.305c-5.179-4.368-13.16-5.077-18.998-1.545c-6.315,3.821-9.551,11.593-10.912,18.532
						c-1.398,7.131-1.797,16.295,2.997,22.318c0.884-0.884,1.768-1.768,2.652-2.652c-7.575-8.291-29.042-16.929-32.971-0.476
						c-1.607,6.73,1.016,14.587,3.424,20.809c3.575,9.236,8.839,17.717,14.452,25.834c1.079-0.631,2.159-1.262,3.238-1.893
						c-4.587-6.503-10.559-13.577-18.03-16.774c-3.294-1.41-6.967-1.829-10.221-0.076c-4.835,2.605-5.638,7.392-5.036,12.454
						c1.605,13.508,8.974,25.543,17.53,35.799c8.925,10.698,19.704,21.747,32.911,26.932
						C748.205,25.235,762.709,14.317,772.332,5.259c1.761-1.658-0.895-4.306-2.652-2.652c-5.568,5.242-11.636,9.993-18.791,12.869
						c-7.077,2.844-12.646,2.342-19.355-1.107c-13.051-6.71-24.504-19.207-32.815-31.138c-3.769-5.411-20.798-37.163-4.383-36.025
						c7.991,0.554,15.326,10.092,19.588,16.133c1.377,1.952,4.619,0.104,3.238-1.893c-7.565-10.941-15.068-22.979-17.378-36.296
						c-1.272-7.33,1.252-14.78,10.047-14.094c6.196,0.483,12.419,4.261,16.537,8.768c1.662,1.819,4.118-0.809,2.652-2.652
						c-4.291-5.391-3.07-14.999-1.473-21.11c1.971-7.538,6.477-15.493,15.18-15.493c8.509,0,13.021,7.619,15.054,15.009
						c1.709,6.21,3.038,16.087-1.346,21.595c-1.466,1.842,0.989,4.472,2.652,2.652c4.13-4.521,10.328-8.272,16.537-8.768
						c8.795-0.702,11.317,6.773,10.047,14.094c-2.31,13.316-9.813,25.356-17.378,36.296c-1.379,1.995,1.859,3.847,3.238,1.893
						c2.859-4.053,6.211-7.895,9.994-11.11c5-4.25,17.041-9.34,16.521,2.521c-0.831,18.961-15.447,35.407-28.365,47.857
						C767.939,4.285,770.593,6.935,772.332,5.259z"/>
				</g>
				<g>
					<path style="fill:#222221;" d="M741.765-59.206c-1.853,38.798-2.283,77.646-1.288,116.475c0.062,2.409,3.812,2.418,3.75,0
						c-0.995-38.829-0.565-77.678,1.288-116.475C745.63-61.618,741.88-61.612,741.765-59.206L741.765-59.206z"/>
				</g>
			</g>
			<g>
				<g>
					<path style="fill:#222221;" d="M1021.095,514.024c-6.841-2.572-10.593-10.561-13.771-16.668
						c-2.18-4.189-4.298-8.413-6.308-12.686c-0.794-1.688-1.574-3.384-2.328-5.091c-0.837-1.896-3.517-5.881-3.315-8.027
						c0.436-4.636,10.186-3.864,13.802-4.01c5.399-0.219,10.835,0.052,16.182,0.831c8.513,1.24,16.978,3.616,24.952,6.825
						c3.727,1.5,10.138,3.518,13.012,6.504c3.196,3.321,1.012,4.36-1.118,6.59c-3.638,3.809-7.43,7.477-11.389,10.952
						C1043.77,505.426,1031.488,516.807,1021.095,514.024c-2.334-0.625-3.329,2.992-0.997,3.616
						c9.942,2.662,20.456-5.33,27.742-11.059c4.85-3.814,9.419-7.986,13.787-12.342c2.329-2.322,7.322-6.04,7.786-9.511
						c0.862-6.46-11.268-10.255-15.637-12.124c-8.735-3.736-18.021-6.439-27.422-7.848c-8.92-1.337-17.993-1.364-26.916-0.043
						c-2.434,0.36-6.06,0.478-7.574,2.856c-1.656,2.601,0.227,5.9,1.229,8.361c3.617,8.884,7.828,17.598,12.422,26.019
						c3.425,6.279,7.585,13.059,14.584,15.69C1022.36,518.491,1023.337,514.867,1021.095,514.024z"/>
				</g>
				<g>
					<path style="fill:#222221;" d="M959.085,383.57c-3.429-5.588-7.912-10.422-11.341-16.009c-0.456-0.743-1.286-1.041-2.117-0.862
						c-16.738,3.617-32.958,11.928-47.035,21.51c-5.065,3.447-20.649,12.787-17.24,20.869c1.227,2.911,3.85,5.521,5.899,7.853
						c3.645,4.147,7.526,8.089,11.46,11.96c9.888,9.729,20.246,19.04,31.103,27.678c7.267,5.782,15.986,13.747,25.291,15.981
						c7.413,1.779,15.91-5.334,21.44-9.273c11.17-7.957,21.617-16.986,31.66-26.309c8.069-7.49,16.479-15.219,23.057-24.103
						c1.925-2.601,3.483-4.942,2.394-8.243c-1.806-5.478-7.518-9.768-11.881-13.106c-15.1-11.55-33.837-20.803-52.468-24.816
						c-0.834-0.18-1.664,0.123-2.118,0.862c-3.429,5.588-7.912,10.422-11.341,16.009c-1.266,2.062,1.976,3.948,3.238,1.893
						c3.429-5.588,7.912-10.422,11.341-16.009c-0.706,0.287-1.412,0.574-2.117,0.862c15.83,3.41,31.112,10.758,44.632,19.558
						c4.724,3.075,20.632,12.398,16.344,19.31c-4.776,7.699-12.335,14.261-18.803,20.477c-9.084,8.729-18.555,17.107-28.479,24.871
						c-4.41,3.45-8.931,6.801-13.685,9.768c-2.862,1.786-6.254,4.12-9.663,4.681c-6.496,1.07-14.851-6.514-19.608-10.013
						c-18.236-13.414-36.334-29.246-50.857-46.681c-1.636-1.965-4.073-4.272-3.283-6.46c1.927-5.341,9.233-9.911,13.57-12.986
						c14.278-10.122,30.954-18.81,48.147-22.525c-0.706-0.287-1.412-0.574-2.117-0.862c3.429,5.588,7.912,10.422,11.341,16.009
						C957.108,387.517,960.352,385.635,959.085,383.57z"/>
				</g>
				<g>
					<path style="fill:#222221;" d="M956.026,470.835c1.099,26.809,6.813,53.355,19.366,77.213c1.124,2.136,4.362,0.243,3.238-1.893
						c-12.242-23.266-17.782-49.18-18.854-75.32C959.677,468.43,955.927,468.418,956.026,470.835L956.026,470.835z"/>
				</g>
				<g>
					<path style="fill:#222221;" d="M912.623,407.971c13.577,21.883,28.623,42.782,43.223,63.982
						c1.159,1.682,4.032,0.703,3.427-1.445c-7.496-26.604-12.208-53.942-18.941-80.743c-0.588-2.339-4.205-1.348-3.616,0.997
						c6.733,26.8,11.445,54.138,18.941,80.743c1.142-0.482,2.285-0.963,3.427-1.445c-14.599-21.2-29.646-42.098-43.223-63.982
						C914.592,404.031,911.346,405.912,912.623,407.971L912.623,407.971z"/>
				</g>
				<g>
					<path style="fill:#222221;" d="M971.204,398.701c-5.809,23.778-10.971,47.761-15.547,71.806
						c-0.402,2.112,2.187,3.211,3.427,1.445c14.969-21.323,28.752-43.445,43.559-64.878c1.375-1.99-1.874-3.867-3.238-1.893
						c-14.807,21.433-28.59,43.555-43.559,64.878c1.142,0.482,2.285,0.963,3.427,1.445c4.575-24.046,9.737-48.029,15.547-71.806
						C975.392,397.354,971.777,396.354,971.204,398.701L971.204,398.701z"/>
				</g>
				<g>
					<path style="fill:#222221;" d="M1010.42,481.544c3.843,11.523,8.443,23.483,10.072,35.587c0.238,1.765,2.622,1.598,3.427,0.448
						c6.896-9.857,14.863-18.731,22.73-27.803c1.574-1.815-1.067-4.479-2.652-2.652c-8.077,9.315-16.237,18.443-23.317,28.562
						c1.142,0.149,2.285,0.299,3.427,0.448c-1.629-12.101-6.23-24.068-10.072-35.587
						C1013.276,478.269,1009.653,479.245,1010.42,481.544L1010.42,481.544z"/>
				</g>
				<g>
					<path style="fill:#222221;" d="M1029.451,477.911c-6.006,22.589-11.132,45.393-15.371,68.379
						c-0.435,2.359,3.178,3.371,3.616,0.997c4.239-22.986,9.365-45.791,15.371-68.38
						C1033.688,476.574,1030.072,475.578,1029.451,477.911L1029.451,477.911z"/>
				</g>
			</g>
			<g>
				<path style="fill:#EDC766;" d="M1135.903,694.023c-6.492-3.442-9.787-14.563-11.723-21.032
					c-2.647-8.848-5.172-18.102-6.777-26.981c-0.206-1.137-0.347-2.44,0.391-3.329c0.735-0.887,2.036-0.991,3.188-0.996
					c11.715-0.05,23.552,2.359,34.363,6.857c11.228,4.671,22.488,11.165,31.352,19.581c1.046,0.993,1.658,2.66,1.076,3.98
					c-0.29,0.658-0.877,1.13-1.45,1.565C1178.147,679.882,1148.526,700.715,1135.903,694.023z"/>
				<g>
					<path style="fill:#EDC766;" d="M1136.849,692.404c-6.003-3.617-8.295-11.531-10.238-17.844
						c-2.581-8.383-4.985-16.874-6.711-25.479c-0.772-3.849-1.28-4.967,2.932-5.51c2.32-0.299,5.086,0.209,7.402,0.452
						c4.764,0.5,9.483,1.423,14.099,2.701c9.097,2.519,17.816,6.525,25.897,11.383c3.979,2.393,7.817,5.031,11.386,8.005
						c1.895,1.578,4.966,3.879,2.784,6.67c-0.471,0.602-1.465,1.081-2.087,1.53c-4.219,3.046-8.562,5.926-13.028,8.596
						C1161.253,687.708,1146.619,697.087,1136.849,692.404c-2.166-1.038-4.07,2.194-1.893,3.238
						c9.498,4.553,21.437-1.464,29.859-5.907c5.423-2.861,10.635-6.118,15.69-9.583c2.94-2.015,9.027-4.945,9.287-8.95
						c0.378-5.824-9.885-11.312-14.065-14.07c-7.253-4.786-15.174-8.755-23.331-11.75c-8.864-3.254-18.273-5.144-27.712-5.508
						c-2.522-0.097-6.268-0.673-8.216,1.48c-1.904,2.105-0.84,5.421-0.362,7.829c1.96,9.861,4.611,19.706,7.803,29.242
						c2.16,6.451,4.959,13.549,11.048,17.217C1137.029,696.89,1138.916,693.649,1136.849,692.404z"/>
				</g>
			</g>
			<g>
				<path style="fill:#EDC766;" d="M614.456,191.996c6.18,0.113,13.393-1.468,19.572-1.355c8.704-24.344,7.853-69.499,0.021-74.27
					c-5.478-3.338-86.257,18.812-93.452,30.622c-7.27,11.933,9.415,93.302,15.637,97.092c9.006,5.487,48.35-15.177,65.993-34.074
					C619.292,204.571,617.391,197.436,614.456,191.996z"/>
				<g>
					<path style="fill:#EDC766;" d="M614.456,193.871c6.556-0.021,13.016-1.334,19.572-1.355c0.87-0.003,1.534-0.588,1.808-1.376
						c5.551-15.968,6.893-33.877,6.133-50.673c-0.292-6.454-0.765-13.333-2.909-19.481c-0.978-2.806-2.378-5.969-5.511-6.702
						c-2.973-0.696-6.695,0.286-9.62,0.781c-5.508,0.933-10.961,2.208-16.379,3.562c-13.615,3.402-27.116,7.446-40.293,12.278
						c-8.685,3.185-20.094,6.523-26.792,13.31c-5.254,5.324-3.689,16.011-3.227,22.677c0.935,13.483,3.166,26.916,5.828,40.155
						c2.224,11.059,4.46,22.582,8.726,33.076c1.187,2.921,2.318,5.563,5.599,6.417c5.854,1.524,12.993-1.406,18.304-3.533
						c17.499-7.006,34.84-17.959,47.856-31.67c0.602-0.634,0.683-1.511,0.293-2.272c-2.987-5.834-4.783-12.179-7.77-18.015
						c-1.1-2.149-4.337-0.254-3.238,1.893c2.987,5.834,4.783,12.179,7.77,18.015c0.098-0.757,0.195-1.515,0.293-2.272
						c-11.144,11.74-25.396,20.965-39.94,27.929c-5.187,2.483-21.409,11.271-25.064,3.62c-3.97-8.307-5.737-18.086-7.702-27.008
						c-2.746-12.464-4.997-25.08-6.415-37.767c-0.584-5.225-1.044-10.482-1.102-15.743c-0.037-3.384-0.317-7.69,1.102-10.871
						c1.162-2.604,3.958-4.124,6.329-5.49c4.362-2.514,9.034-4.51,13.702-6.373c11.383-4.544,23.112-8.258,34.903-11.584
						c10.064-2.839,20.346-5.703,30.729-7.113c2.763-0.375,5.441-1.214,6.87,1.153c3.147,5.213,3.4,12.727,3.775,18.603
						c1.099,17.247-0.164,35.693-5.868,52.102c0.603-0.459,1.205-0.918,1.808-1.377c-6.556,0.021-13.016,1.334-19.572,1.355
						C612.044,190.129,612.039,193.879,614.456,193.871z"/>
				</g>
			</g>
			<g>
				<g>
					<path style="fill:#222221;" d="M566.557,199.763c3.844-3.387,8.177-2.279,12.795-2.815c4.36-0.506,8.75-1.321,13.093-2.002
						c7.223-1.133,14.463-3.352,20.504-7.586c9.381-6.576,16.662-20.356,11.448-31.67c-2.348-5.095-7.132-9.432-12.788-10.31
						c-5.799-0.899-11.502,2.413-17.155,3.225c-2.247,0.323-9.759,0.648-9.094-3.118c0.347-1.969,4.097-4.276,5.501-5.266
						c3.259-2.298,6.878-4.063,10.099-6.404c8.13-5.91,19.458-21.066,7.432-29.095c-4.991-3.332-11.389-2.655-16.691-0.502
						c-3.184,1.293-5.978,3.177-8.719,5.223c-3.659,2.732-8.051,7.206-12.738,5.285c-3.013-1.235-2.099-1.915-0.305-4.115
						c0.705-0.865,1.51-1.66,2.305-2.44c1.84-1.805,3.88-3.391,5.731-5.181c3.909-3.78,7.385-8.787,9.192-13.926
						c3.729-10.602-5.052-23.308-16.893-18.5c-5.69,2.31-8.387,7.538-12.813,11.236c-1.379,1.152-0.598,1.704-1.862,0.337
						c-0.726-0.786-0.887-2.561-1.122-3.596c-0.526-2.313-0.796-4.678-1.29-6.999c-1.996-9.393-6.096-26.957-18.243-28.108
						c-11.856-1.124-18.299,12.981-20.117,22.56c-1.282,6.755-1.038,13.44,0.497,20.124c0.381,1.661,2.36,6.398,1.53,8.077
						c-1.069,2.163-6.559-1.049-8.293-1.64c-9.108-3.102-19.831-2.688-22.846,8.141c-3.33,11.961,6.543,21.108,17.03,24.48
						c4.973,1.599,15.983,4.346,8.923,10.668c-3.605,3.228-8.382,4.863-12.671,6.93c-9.109,4.391-18.033,15.618-9.929,25.219
						c9.004,10.668,25.448,6.373,36.63,2.751c-0.016,0.005,2.962-1.177,3.235-1.042c1.221,0.604,0.723,0.29,0.349,1.328
						c-0.413,1.146-2.342,2.443-3.269,3.282c-2.379,2.155-4.917,4.124-7.367,6.196c-4.377,3.703-8.798,7.776-11.113,13.143
						c-4.086,9.474-0.199,19.907,8.8,24.746c11.284,6.068,23.657,2.06,33.593-4.742C555.897,209.57,561.211,204.614,566.557,199.763
						c1.791-1.625-0.867-4.271-2.652-2.652c-9.791,8.885-22.074,21.516-36.502,20.594c-12.982-0.829-22.796-13.237-14.926-25.366
						c3.145-4.848,7.924-8.427,12.316-12.07c2.929-2.429,8.262-5.836,9.073-9.857c0.913-4.524-3.518-5.011-6.736-4.069
						c-7.726,2.263-15.295,5.483-23.526,4.486c-6.813-0.826-15.196-4.823-13.739-13.054c1.125-6.355,7.369-10.105,12.781-12.551
						c5.464-2.469,16.866-7.022,15.229-14.918c-0.847-4.086-5.26-5.803-8.777-7.069c-5.833-2.101-11.605-3.376-16.104-8.051
						c-4.734-4.919-6.503-15.242,0.324-19.419c4.348-2.66,10.345-0.987,14.779,0.588c2.967,1.054,7.538,4.402,10.665,2.118
						c2.554-1.864,1.9-5.806,1.376-8.456c-1.487-7.507-3.153-14.157-1.897-21.883c0.964-5.93,3.116-12.477,7.34-16.917
						c14.398-15.134,22.604,13.652,24.376,23.194c0.632,3.402,2.657,16.925,9.062,11.609c1.498-1.243,2.569-3.469,3.919-4.915
						c2.701-2.892,5.912-6.409,9.851-7.471c4.649-1.253,9.736,1.705,11.246,6.231c1.318,3.949-0.195,8.162-2.09,11.641
						c-2.439,4.478-5.711,8.011-9.468,11.359c-2.905,2.588-6.737,5.677-7.972,9.55c-1.113,3.493,0.856,6.509,4.46,7.162
						c5.664,1.027,11.057-3.227,15.243-6.39c5.619-4.246,14.662-10.165,21.725-5.565c9.224,6.008,0.041,17.111-5.665,21.953
						c-5.483,4.653-14.727,7.163-18.136,13.947c-4.367,8.69,10.127,9.423,15.071,8.392c6.145-1.281,12.3-4.833,18.275-1.089
						c7.273,4.557,7.945,13.518,5.213,20.888c-6.102,16.465-23.933,18.656-38.964,21.036c-6.588,1.043-12.521-0.311-17.823,4.361
						C562.091,198.71,564.751,201.354,566.557,199.763z"/>
				</g>
				<g>
					<path style="fill:#222221;" d="M532.271,73.197c2.884,58.078,21.896,114.523,53.084,163.476c1.293,2.03,4.54,0.151,3.238-1.893
						c-30.833-48.396-49.719-104.153-52.572-161.583C535.902,70.796,532.151,70.781,532.271,73.197L532.271,73.197z"/>
				</g>
				<g>
					<path style="fill:#222221;" d="M515.422,114.042c8.676,2.844,16.614,6.87,24.216,11.9c2.018,1.336,3.898-1.911,1.893-3.238
						c-7.858-5.2-16.154-9.342-25.112-12.278C514.12,109.673,513.135,113.293,515.422,114.042L515.422,114.042z"/>
				</g>
				<g>
					<path style="fill:#222221;" d="M564.832,132.688c-6.395,11.403-10.67,23.681-12.676,36.604
						c-0.366,2.361,3.247,3.378,3.616,0.997c1.957-12.611,6.052-24.573,12.298-35.708
						C569.252,132.473,566.014,130.58,564.832,132.688L564.832,132.688z"/>
				</g>
			</g>
			<g>
				<g>
					<path style="fill:#222221;" d="M625.87,325.204c-2.997,26.213,0.231,55.325,16.79,76.907
						c13.827,18.022,37.205,32.622,60.212,33.532c1.021,0.04,1.864-0.892,1.875-1.875c0.266-24.155-6.221-47.688-19.657-67.849
						c-13.345-20.024-34.169-34.883-56.846-42.522c-2.292-0.772-3.276,2.849-0.997,3.616c22.223,7.486,42.634,22.259,55.433,42.066
						c12.54,19.406,18.57,41.637,18.316,64.69c0.625-0.625,1.25-1.25,1.875-1.875c-22.014-0.871-45.052-15.353-57.923-32.934
						c-15.407-21.044-18.205-48.587-15.328-73.755C629.894,322.81,626.142,322.83,625.87,325.204z"/>
				</g>
				<g>
					<path style="fill:#222221;" d="M626.126,326.15c23.615,37.284,47.431,74.736,75.419,108.943
						c1.529,1.869,4.168-0.798,2.652-2.652c-27.782-33.954-51.393-71.176-74.833-108.184
						C628.076,322.224,624.83,324.104,626.126,326.15L626.126,326.15z"/>
				</g>
				<g>
					<path style="fill:#222221;" d="M642.401,373.282c7.841,3.982,16.385,6.595,23.504,11.848c1.943,1.434,3.816-1.819,1.893-3.238
						c-7.126-5.258-15.657-7.863-23.504-11.848C642.147,368.954,640.247,372.188,642.401,373.282L642.401,373.282z"/>
				</g>
				<g>
					<path style="fill:#222221;" d="M663.604,360.258c-0.405,10.475,1.187,21.456,5.656,31.002c1.022,2.184,4.256,0.282,3.238-1.893
						c-4.184-8.938-5.522-19.326-5.144-29.109C667.447,357.845,663.697,357.849,663.604,360.258L663.604,360.258z"/>
				</g>
				<g>
					<path style="fill:#222221;" d="M661.024,401.123c6.777,2.432,13.491,5.011,20.151,7.748c2.231,0.916,3.202-2.71,0.997-3.616
						c-6.66-2.736-13.374-5.315-20.151-7.748C659.745,396.69,658.765,400.313,661.024,401.123L661.024,401.123z"/>
				</g>
				<g>
					<path style="fill:#222221;" d="M682.581,393.591c0.105,5.555-0.261,11.11,0.147,16.659c0.176,2.392,3.927,2.412,3.75,0
						c-0.408-5.549-0.042-11.104-0.147-16.659C686.285,391.181,682.535,391.173,682.581,393.591L682.581,393.591z"/>
				</g>
				<g>
					<path style="fill:#222221;" d="M750.896,273.614c-20.528,16.619-38.578,39.674-41.892,66.691
						c-2.759,22.494,3.707,49.366,19.486,66.068c0.696,0.737,1.949,0.7,2.652,0c17.106-17.061,28.974-38.393,33.495-62.205
						c4.491-23.655,0.044-48.825-10.796-70.175c-1.093-2.152-4.329-0.257-3.238,1.893c10.606,20.889,14.846,45.72,10.116,68.804
						c-4.64,22.645-15.897,42.743-32.228,59.032c0.884,0,1.768,0,2.652,0c-15.071-15.952-21.266-42.178-18.352-63.649
						c3.521-25.953,21.01-47.819,40.758-63.807C755.424,274.747,752.757,272.108,750.896,273.614z"/>
				</g>
				<g>
					<path style="fill:#222221;" d="M750.414,274.441c-9.256,43.158-18.495,86.581-22.473,130.606c-0.217,2.403,3.534,2.388,3.75,0
						c3.948-43.688,13.153-86.782,22.339-129.609C754.535,273.085,750.921,272.079,750.414,274.441L750.414,274.441z"/>
				</g>
				<g>
					<path style="fill:#222221;" d="M729.014,319.528c2.81,8.334,7.074,16.182,8.48,24.918c0.382,2.376,3.997,1.368,3.616-0.997
						c-1.406-8.742-5.668-16.579-8.48-24.918C731.863,316.257,728.24,317.232,729.014,319.528L729.014,319.528z"/>
				</g>
				<g>
					<path style="fill:#222221;" d="M753.281,325.062c-7.617,7.186-14.184,16.127-17.677,26.063
						c-0.802,2.281,2.82,3.262,3.616,0.997c3.275-9.318,9.584-17.683,16.712-24.408
						C757.692,326.054,755.036,323.406,753.281,325.062L753.281,325.062z"/>
				</g>
				<g>
					<path style="fill:#222221;" d="M722.81,352.442c3.134,6.482,6.12,13.026,8.958,19.643c0.948,2.211,4.18,0.303,3.238-1.893
						c-2.838-6.617-5.824-13.161-8.958-19.643C724.998,348.378,721.764,350.277,722.81,352.442L722.81,352.442z"/>
				</g>
				<g>
					<path style="fill:#222221;" d="M743.482,362.146c-3.808,4.046-7.978,7.738-11.562,11.994c-1.545,1.835,1.095,4.501,2.652,2.652
						c3.584-4.257,7.755-7.949,11.563-11.994C747.787,363.041,745.141,360.384,743.482,362.146L743.482,362.146z"/>
				</g>
				<g>
					<path style="fill:#222221;" d="M727.923,399.726c-0.344,8.978-0.689,17.956-1.033,26.934c-0.093,2.413,3.657,2.409,3.75,0
						c0.344-8.978,0.689-17.956,1.033-26.934C731.765,397.313,728.015,397.316,727.923,399.726L727.923,399.726z"/>
				</g>
				<g>
					<path style="fill:#222221;" d="M700.386,432.282c5.357,7.399,10.714,14.799,16.071,22.198c1.402,1.936,4.657,0.067,3.238-1.893
						c-5.357-7.399-10.714-14.799-16.071-22.198C702.222,428.453,698.967,430.322,700.386,432.282L700.386,432.282z"/>
				</g>
			</g>
			<g>
				<path style="fill:#A2A05A;" d="M79.008,334.323c-8.773,0.559-10.47,0.89-11.425,11.881c-1.134,13.056-0.167,25.133,5.765,37.073
					c6.577,13.238,17.779,23.927,32.693,28.741c7.669,2.475,24.06,3.032,33.424-1.136c5.098-8.871,6.187-25.186,4.486-33.043
					C138.202,351.277,110.424,332.321,79.008,334.323z"/>
				<g>
					<path style="fill:#A2A05A;" d="M79.008,332.448c-5.248,0.345-10.346,0.702-12.157,6.423
						c-2.821,8.911-2.058,20.247-0.442,29.291c3.542,19.829,17.32,37.342,36.202,44.623c8.142,3.14,17.361,3.597,25.967,2.638
						c3.452-0.385,8.437-0.744,11.387-2.734c2.722-1.835,3.785-6.727,4.579-9.783c4.357-16.767,1.618-33.707-9.394-47.278
						C121.677,339.023,99.987,331.334,79.008,332.448c-2.401,0.128-2.416,3.878,0,3.75c30.368-1.613,64.845,18.474,63.781,52.18
						c-0.122,3.854-0.56,7.702-1.379,11.471c-0.715,3.294-1.471,8.606-4.722,10.104c-6.513,3-15.918,2.504-22.863,1.717
						c-16.767-1.899-31.013-13.996-38.521-28.682c-5.144-10.061-6.677-21.184-6.143-32.371c0.165-3.464-0.21-9.028,1.851-12.05
						c1.673-2.454,5.347-2.194,7.996-2.369C81.404,336.04,81.422,332.289,79.008,332.448z"/>
				</g>
			</g>
			<g>
				<g>
					<path style="fill:#222221;" d="M-22.803,424.326c-2.997,26.213,0.231,55.325,16.79,76.907
						c13.827,18.022,37.205,32.622,60.212,33.532c1.021,0.04,1.864-0.892,1.875-1.875c0.266-24.155-6.221-47.688-19.657-67.85
						c-13.345-20.024-34.169-34.883-56.845-42.522c-2.292-0.772-3.276,2.848-0.997,3.616c22.223,7.486,42.634,22.259,55.433,42.066
						c12.54,19.406,18.57,41.637,18.317,64.69c0.625-0.625,1.25-1.25,1.875-1.875c-22.014-0.871-45.052-15.353-57.924-32.934
						c-15.407-21.044-18.205-48.587-15.328-73.755C-18.779,421.932-22.531,421.952-22.803,424.326z"/>
				</g>
				<g>
					<path style="fill:#222221;" d="M-22.547,425.272c23.615,37.284,47.431,74.736,75.42,108.943
						c1.529,1.869,4.168-0.798,2.652-2.652C27.742,497.61,4.131,460.388-19.309,423.379
						C-20.597,421.346-23.843,423.225-22.547,425.272L-22.547,425.272z"/>
				</g>
				<g>
					<path style="fill:#222221;" d="M-6.272,472.404c7.84,3.982,16.385,6.595,23.504,11.848c1.944,1.434,3.816-1.819,1.893-3.238
						c-7.126-5.258-15.657-7.863-23.504-11.848C-6.526,468.076-8.427,471.31-6.272,472.404L-6.272,472.404z"/>
				</g>
				<g>
					<path style="fill:#222221;" d="M14.93,459.38c-0.405,10.475,1.187,21.456,5.656,31.002c1.022,2.184,4.256,0.282,3.238-1.893
						c-4.184-8.937-5.522-19.326-5.144-29.109C18.774,456.966,15.023,456.97,14.93,459.38L14.93,459.38z"/>
				</g>
				<g>
					<path style="fill:#222221;" d="M12.35,500.245c6.777,2.432,13.491,5.011,20.151,7.748c2.23,0.916,3.202-2.71,0.997-3.616
						c-6.66-2.736-13.374-5.315-20.151-7.747C11.072,495.812,10.092,499.434,12.35,500.245L12.35,500.245z"/>
				</g>
				<g>
					<path style="fill:#222221;" d="M33.907,492.713c0.105,5.555-0.261,11.11,0.147,16.659c0.176,2.392,3.927,2.412,3.75,0
						c-0.408-5.549-0.042-11.104-0.147-16.659C37.612,490.303,33.862,490.295,33.907,492.713L33.907,492.713z"/>
				</g>
				<g>
					<path style="fill:#222221;" d="M102.223,372.736c-20.528,16.619-38.577,39.674-41.892,66.691
						c-2.759,22.494,3.708,49.366,19.486,66.068c0.696,0.737,1.949,0.7,2.652,0c17.106-17.062,28.974-38.393,33.495-62.205
						c4.491-23.655,0.044-48.825-10.796-70.175c-1.093-2.152-4.329-0.257-3.238,1.893c10.606,20.889,14.846,45.72,10.116,68.804
						c-4.64,22.645-15.897,42.743-32.228,59.031c0.884,0,1.768,0,2.652,0c-15.071-15.952-21.266-42.178-18.352-63.649
						c3.521-25.953,21.01-47.819,40.758-63.807C106.751,373.868,104.083,371.23,102.223,372.736z"/>
				</g>
				<g>
					<path style="fill:#222221;" d="M101.741,373.563c-9.257,43.158-18.494,86.581-22.473,130.606c-0.217,2.403,3.534,2.388,3.75,0
						c3.948-43.688,13.153-86.782,22.339-129.609C105.862,372.207,102.248,371.201,101.741,373.563L101.741,373.563z"/>
				</g>
				<g>
					<path style="fill:#222221;" d="M80.341,418.65c2.81,8.334,7.074,16.182,8.48,24.918c0.382,2.376,3.997,1.368,3.616-0.997
						c-1.406-8.742-5.668-16.579-8.48-24.918C83.19,415.378,79.566,416.354,80.341,418.65L80.341,418.65z"/>
				</g>
				<g>
					<path style="fill:#222221;" d="M104.608,424.184c-7.617,7.186-14.184,16.127-17.677,26.063
						c-0.802,2.281,2.82,3.262,3.616,0.997c3.275-9.318,9.584-17.683,16.712-24.408
						C109.019,425.176,106.363,422.527,104.608,424.184L104.608,424.184z"/>
				</g>
				<g>
					<path style="fill:#222221;" d="M74.137,451.564c3.134,6.482,6.12,13.025,8.958,19.643c0.948,2.211,4.18,0.303,3.238-1.893
						c-2.838-6.617-5.824-13.16-8.958-19.643C76.325,447.499,73.09,449.399,74.137,451.564L74.137,451.564z"/>
				</g>
				<g>
					<path style="fill:#222221;" d="M94.809,461.267c-3.808,4.046-7.978,7.738-11.562,11.994c-1.545,1.835,1.095,4.501,2.652,2.652
						c3.584-4.257,7.755-7.949,11.563-11.994C99.114,462.163,96.467,459.506,94.809,461.267L94.809,461.267z"/>
				</g>
				<g>
					<path style="fill:#222221;" d="M79.25,498.848c-0.345,8.978-0.689,17.956-1.033,26.934c-0.093,2.413,3.658,2.409,3.75,0
						c0.344-8.978,0.689-17.956,1.033-26.934C83.092,496.434,79.342,496.438,79.25,498.848L79.25,498.848z"/>
				</g>
				<g>
					<path style="fill:#222221;" d="M51.713,531.403c5.357,7.399,10.714,14.799,16.071,22.198c1.402,1.936,4.657,0.067,3.238-1.893
						c-5.357-7.399-10.714-14.799-16.071-22.198C53.549,527.574,50.294,529.444,51.713,531.403L51.713,531.403z"/>
				</g>
			</g>
			<g>
				<g>
					<path style="fill:#222221;" d="M897.94,213.632c3.306-3.267,6.202-6.808,8.817-10.645c-1.165-0.316-2.329-0.631-3.494-0.946
						c-2.236,22.925,7.854,42.18,19.615,61.082c0.759,1.22,2.475,1.202,3.238,0c10.077-15.879,17.327-33.68,15.485-52.79
						c-0.94,0.54-1.881,1.079-2.821,1.619c19.893,14.357,43.713,21.654,66.764,29.283c1.293,0.428,2.795-0.98,2.306-2.307
						c-8.779-23.825-22.38-45.69-40.872-63.196c-0.442,1.067-0.884,2.134-1.326,3.201c17.941-1.624,33.499-10.531,48.511-19.863
						c1.22-0.758,1.202-2.476,0-3.238c-19.42-12.309-41.125-19.567-63.961-13.262c0.608,1.045,1.216,2.089,1.824,3.134
						c10.892-13.476,15.082-29.804,15.954-46.863c0.074-1.451-1.639-2.295-2.821-1.619c-13.944,7.975-27.984,16.682-37.038,30.334
						c-7.852,11.84-10.356,24.723-13.532,38.254c-0.317,1.352,0.888,2.73,2.307,2.306c0,0,0.001,0,0.001,0
						c-0.769-0.769-1.538-1.538-2.306-2.306c-0.001,0.001-0.001,0.002-0.002,0.004c1.228,0.166,2.455,0.332,3.683,0.498
						c0-0.001,0-0.002,0-0.003c0.102-1.509-1.644-2.215-2.821-1.619c-12.389,6.278-24.322,11.77-33.965,22.187
						c-11.123,12.018-16.262,27.743-20.716,43.169c-0.392,1.357,0.94,2.713,2.306,2.306
						C875.908,228.533,888.078,222.842,897.94,213.632c1.767-1.651-0.889-4.298-2.652-2.652c-9.39,8.77-20.996,14.121-33.208,17.755
						c0.769,0.769,1.538,1.538,2.306,2.307c4.423-15.319,9.465-30.98,20.843-42.664c9.312-9.562,20.465-14.548,32.114-20.451
						c-0.94-0.54-1.881-1.079-2.821-1.619c0,0.001,0,0.002,0,0.003c-0.154,2.276,2.96,2.312,3.683,0.499
						c0-0.001,0.001-0.003,0.002-0.004c0.539-1.353-1.042-2.684-2.307-2.306c0,0-0.001,0-0.001,0
						c0.769,0.769,1.538,1.538,2.307,2.307c2.978-12.685,5.191-24.761,12.294-36.026c8.705-13.805,22.696-22.396,36.552-30.321
						c-0.94-0.54-1.881-1.079-2.821-1.619c-0.816,15.97-4.637,31.57-14.855,44.212c-1.112,1.376-0.122,3.671,1.824,3.134
						c21.9-6.047,42.49,1.106,61.072,12.884c0-1.079,0-2.159,0-3.238c-14.374,8.935-29.416,17.793-46.619,19.351
						c-1.523,0.138-2.594,2-1.326,3.201c18.015,17.054,31.351,38.321,39.907,61.541c0.769-0.769,1.538-1.538,2.307-2.307
						c-22.77-7.536-46.219-14.723-65.869-28.904c-1.107-0.799-2.952,0.26-2.821,1.619c1.785,18.521-5.211,35.514-14.973,50.898
						c1.079,0,2.159,0,3.238,0c-11.422-18.358-21.278-36.892-19.103-59.189c0.196-2.007-2.55-2.332-3.494-0.946
						c-2.444,3.587-5.147,6.839-8.231,9.886C893.569,212.679,896.221,215.331,897.94,213.632z"/>
				</g>
				<g>
					<path style="fill:#222221;" d="M940.899,182.434c-22.86-21.267-49.077-38.28-77.744-50.639
						c-2.193-0.945-4.105,2.284-1.893,3.238c28.377,12.235,54.35,28.996,76.985,50.053
						C940.013,186.728,942.671,184.082,940.899,182.434L940.899,182.434z"/>
				</g>
			</g>
			<g>
				<g>
					<path style="fill:#222221;" d="M728.385,754.547c-12.571-8.56-12.989-26.893-9.33-40.078c1.98-7.136,6.031-13.236,8.307-20.175
						c1.16-3.535,1.855-9.031-2.277-10.908c-3.432-1.559-7.761,0.232-11.079,1.245c-7.016,2.141-19.589,1.134-19.619-8.737
						c-0.052-17.231,23.385-11.49,30.805-22.01c2.345-3.325,2.289-7.525-1.029-10.188c-3.566-2.862-8.993-2.241-13.242-2.157
						c-7.001,0.138-23.271,2.277-24.262-7.49c-1.613-15.9,18.233-21.208,30.228-23.142c16.611-2.678,34.038-2.06,50.68,0.077
						c8.334,1.07,14.842,2.911,22.316,7.118c11.228,6.321,21.654,14.267,31.392,22.685c7.9,6.83,15.778,14.439,20.95,23.609
						c2.474,4.387,4.454,9.503,3.76,14.627c-0.803,5.924-5.257,11.935-11.773,10.14c-9.357-2.577-15.435-11.177-23.615-15.806
						c-2.656-1.503-6.198-3.041-9.174-1.511c-2.821,1.45-3.911,4.928-3.467,7.877c1.352,8.987,11.138,14.364,13.696,22.904
						c2.202,7.352-4.335,14.636-11.674,14.72c-6.414,0.073-9.68-5.452-14.177-9.043c-2.893-2.31-7.161-4.762-10.902-2.941
						c-4.228,2.057-4.686,7.818-5.426,11.826c-2.516,13.612-8.25,30.227-21.517,36.779
						C741.808,757.006,734.54,758.085,728.385,754.547c-2.096-1.205-3.987,2.034-1.893,3.238
						c10.216,5.873,23.392,1.544,31.372-6.262c4.626-4.526,7.823-10.683,10.284-16.589c2.996-7.189,3.855-14.567,5.935-21.96
						c2.867-10.193,11.818,0.995,15.871,4.341c3.822,3.156,8.318,4.451,13.23,3.408c10.444-2.218,15.398-13.566,10.505-22.756
						c-2.543-4.777-6.384-8.705-9.362-13.194c-1.146-1.728-2.71-3.912-2.748-6.074c-0.073-4.145,3.34-4.014,6.22-2.594
						c8.832,4.355,14.688,12.98,24.253,16.299c9.659,3.351,17.129-4.682,17.777-14.089c0.696-10.11-6.031-19.513-12.296-26.777
						c-6.96-8.071-15.164-14.971-23.557-21.494c-6.388-4.965-12.946-9.733-19.913-13.859c-4.779-2.83-9.877-5.921-15.352-7.126
						c-15.724-3.46-32.572-4.158-48.595-3.263c-14.293,0.798-34.561,2.666-43.677,15.492c-3.453,4.858-5.549,13.49-1.617,18.643
						c5.272,6.909,17.465,5.484,25.063,5.385c2.687-0.035,5.39-0.271,8.067,0.066c0.884,0.111,2.055,0.124,2.813,0.672
						c0.935,0.676,2.161,3.392,1.957,4.743c-0.262,1.732-3.171,3.486-4.598,4.199c-6.712,3.354-14.591,2.939-20.749,7.754
						c-9.008,7.043-9.07,21.136,2.483,25.427c6.15,2.285,11.636,1.011,17.653-0.704c3.779-1.077,7.631-1.57,6.735,3.772
						c-0.752,4.484-3.688,8.371-5.446,12.504c-5.461,12.841-7.892,27.657-2.525,40.939c2.158,5.339,5.438,9.842,10.217,13.096
						C728.492,759.146,730.37,755.899,728.385,754.547z"/>
				</g>
				<g>
					<path style="fill:#222221;" d="M742.491,728.939c12.689-31.787,25.397-63.525,36.853-95.784
						c0.809-2.278-2.813-3.259-3.616-0.997c-11.456,32.259-24.164,63.997-36.853,95.784
						C737.98,730.184,741.605,731.157,742.491,728.939L742.491,728.939z"/>
				</g>
				<g>
					<path style="fill:#222221;" d="M792.744,694.278c-8.835-11.342-16.357-23.573-22.582-36.529
						c-1.045-2.174-4.279-0.275-3.238,1.893c6.372,13.262,14.128,25.683,23.168,37.288
						C791.573,698.831,794.21,696.16,792.744,694.278L792.744,694.278z"/>
				</g>
				<g>
					<path style="fill:#222221;" d="M728.264,675.427c14.269-3.551,28.037-8.615,41.225-15.114c2.165-1.067,0.267-4.302-1.893-3.238
						c-12.904,6.358-26.372,11.262-40.329,14.735C724.927,672.394,725.918,676.011,728.264,675.427L728.264,675.427z"/>
				</g>
				<g>
					<path style="fill:#222221;" d="M827.923,665.418c-16.128-14.796-33.338-30.204-54.419-37.388
						c-21.289-7.255-44.612-5.233-66.576-3.058c-2.379,0.236-2.404,3.988,0,3.75c21.304-2.11,43.9-4.171,64.615,2.603
						c20.866,6.823,37.858,22.187,53.728,36.745C827.047,669.699,829.706,667.054,827.923,665.418L827.923,665.418z"/>
				</g>
			</g>
			<g>
				<g>
					<path style="fill:#BD562B;" d="M1140.711,231.367c3.297,2.978,6.943,5.567,10.847,7.77c-8.12-0.31-16.031,0.676-23.823,3.4
						c-11.952,4.178-23.057,11.718-33.813,19.497c-0.322,0.233-0.644,0.467-0.965,0.701c14.463,7.914,29.424,12.898,43.844,12.47
						c3.007-0.089,5.994-0.435,8.954-0.976c-1.508,2.41-2.952,4.861-4.319,7.356c-9.204,16.799-16.321,46.492-19.972,60.866
						c22.158-9.886,41.281-23.872,56.558-41.427c0.944-1.084,1.863-2.191,2.771-3.307c0.558,3.788,1.464,7.54,2.766,11.264
						c4.176,11.952,11.71,23.059,19.483,33.816c0.233,0.322,0.466,0.644,0.7,0.965c7.903-14.46,12.879-29.421,12.448-43.84
						c-0.198-6.617-1.534-13.151-3.866-19.45c2.713,1.943,5.563,3.667,8.545,5.125c11.229,5.494,24.391,7.367,37.975,6.993
						c-0.188-0.281-0.376-0.561-0.565-0.842c-6.3-9.358-12.942-18.674-21.185-25.924c-8.17-7.186-17.663-11.65-28.329-14.564
						c-6.643-1.815-9.664-1.619-20.761-3.441c0,0,0,0.001,0,0.001c-0.001,0-0.002-0.001-0.004-0.001c0.001,0,0.002,0,0.004,0
						c-5.819-9.623-6.762-12.5-10.917-17.992c-6.672-8.816-14.348-15.968-24.057-20.878c-9.796-4.954-20.914-7.654-31.944-10.02
						c-0.33-0.071-0.661-0.141-0.992-0.211C1124.8,211.467,1131.434,222.988,1140.711,231.367z"/>
					<g>
						<path style="fill:#BD562B;" d="M1139.385,232.693c3.493,3.064,7.21,5.727,11.227,8.063c0.315-1.165,0.631-2.329,0.946-3.494
							c-23.044-0.596-41.508,10.757-59.548,23.854c-1.075,0.78-1.343,2.515,0,3.238c16.787,9.043,35.069,14.924,54.243,11.682
							c-0.706-0.918-1.412-1.836-2.118-2.754c-12.91,20.878-18.51,45.119-24.479,68.67c-0.431,1.701,1.305,2.772,2.754,2.117
							c22.97-10.38,43.687-25.482,59.709-45.027c-1.045-0.276-2.089-0.552-3.134-0.827c2.823,17.552,12.906,32.387,23.138,46.494
							c0.779,1.075,2.516,1.343,3.238,0c10.881-20.227,16.687-42.41,8.771-64.734c-0.918,0.706-1.836,1.412-2.754,2.117
							c14.03,9.773,30.629,12.71,47.466,12.374c1.344-0.027,2.438-1.6,1.619-2.821c-8.934-13.318-18.606-26.783-32.851-34.83
							c-12.374-6.991-25.381-8.598-39.109-10.802c-1.256-0.202-2.866,0.825-2.307,2.306c0,0,0,0.001,0,0.001
							c0.769-0.769,1.538-1.538,2.307-2.307c-0.001,0-0.003-0.001-0.004-0.001c-0.166,1.228-0.332,2.455-0.499,3.683
							c0.001,0,0.002,0,0.004,0c1.407-0.005,2.355-1.594,1.619-2.821c-7.155-11.927-13.443-23.41-24.526-32.318
							c-12.781-10.273-28.774-14.297-44.504-17.645c-1.27-0.27-2.847,0.874-2.306,2.307
							C1123.007,211.739,1129.493,223.511,1139.385,232.693c1.767,1.64,4.425-1.006,2.652-2.652
							c-9.416-8.74-15.639-19.896-20.135-31.821c-0.769,0.769-1.538,1.538-2.306,2.306c15.564,3.313,31.621,7.2,44.074,17.687
							c10.19,8.581,16.006,19.369,22.715,30.552c0.54-0.94,1.079-1.881,1.619-2.821c-0.001,0-0.002,0-0.004,0
							c-2.151,0.008-2.498,3.047-0.498,3.683c0.001,0,0.003,0.001,0.004,0.001c1.285,0.409,2.812-0.969,2.307-2.306
							c0,0,0-0.001,0-0.001c-0.769,0.769-1.538,1.538-2.307,2.307c12.854,2.064,25.091,3.386,36.823,9.662
							c14.405,7.706,23.99,20.971,32.896,34.248c0.54-0.941,1.079-1.881,1.619-2.821c-16.229,0.324-32.049-2.441-45.574-11.862
							c-1.313-0.915-3.288,0.612-2.754,2.117c7.593,21.414,2.042,42.448-8.392,61.845c1.079,0,2.159,0,3.238,0
							c-10.05-13.856-19.986-28.355-22.76-45.598c-0.216-1.341-2.283-1.865-3.134-0.827c-15.845,19.33-36.233,34.175-58.95,44.441
							c0.918,0.706,1.836,1.412,2.754,2.117c5.889-23.236,11.365-47.175,24.102-67.774c0.935-1.512-0.603-3.01-2.118-2.754
							c-18.113,3.062-35.536-2.785-51.353-11.304c0,1.079,0,2.159,0,3.238c17.474-12.685,35.276-23.921,57.656-23.342
							c1.877,0.049,2.528-2.574,0.946-3.494c-3.746-2.179-7.205-4.615-10.468-7.477
							C1140.229,228.456,1137.566,231.098,1139.385,232.693z"/>
					</g>
				</g>
			</g>
			<g>
				<g>
					<path style="fill:#BD562B;" d="M399.643-24.351c-2.247,3.833-4.042,7.928-5.408,12.198c-1.343-8.015-3.914-15.56-8.162-22.638
						c-6.516-10.856-16.152-20.201-25.95-29.155c-0.294-0.268-0.587-0.536-0.882-0.803c-4.816,15.767-6.661,31.429-3.317,45.462
						c0.698,2.926,1.642,5.781,2.772,8.57c-2.666-0.988-5.359-1.904-8.08-2.736c-18.317-5.605-48.837-6.55-63.652-7.21
						c14.175,19.692,31.75,35.58,52.039,46.979c1.253,0.704,2.523,1.38,3.801,2.042c-3.596,1.315-7.086,2.963-10.469,4.993
						c-10.856,6.514-20.204,16.144-29.161,25.938c-0.268,0.293-0.536,0.587-0.803,0.882c15.763,4.805,31.421,6.643,45.453,3.296
						c6.439-1.536,12.566-4.17,18.261-7.731c-1.352,3.051-2.462,6.192-3.285,9.407c-3.102,12.11-2.266,25.378,0.856,38.604
						c0.237-0.241,0.474-0.482,0.71-0.724c7.886-8.068,15.661-16.461,21.088-26.003c5.379-9.458,7.825-19.659,8.514-30.694
						c0.429-6.873-0.375-9.792-0.842-21.028c0,0-0.001,0-0.001,0.001c0-0.001,0-0.003,0.001-0.004c0,0.001,0,0.002,0.001,0.003
						c8.243-7.65,10.869-9.157,15.403-14.34c7.28-8.322,12.725-17.288,15.564-27.792c2.864-10.597,3.252-22.032,3.332-33.313
						c0.002-0.338,0.004-0.676,0.006-1.014C415.902-43.968,405.966-35.134,399.643-24.351z"/>
					<g>
						<path style="fill:#BD562B;" d="M398.024-25.297c-2.292,4.044-4.125,8.241-5.597,12.646c1.205,0,2.411,0,3.616,0
							c-4.063-22.646-19.027-38.446-35.477-53.424c-1.046-0.952-2.719-0.565-3.134,0.827c-5.373,18.034-7.523,37.127-0.544,55.029
							c0.769-0.769,1.538-1.538,2.306-2.307c-23.056-8.403-47.966-8.946-72.23-10.013c-1.335-0.059-2.454,1.673-1.619,2.821
							c14.932,20.535,33.953,37.881,56.512,49.694c0.149-1.142,0.299-2.285,0.448-3.427c-16.803,6.397-29.379,19.255-41.261,32.295
							c-0.953,1.045-0.565,2.72,0.827,3.134c22.011,6.545,44.946,7.662,65.159-4.625c-0.855-0.855-1.71-1.71-2.565-2.565
							c-6.819,15.945-6.415,32.779-2.618,49.456c0.315,1.384,2.177,1.803,3.134,0.827c11.21-11.43,22.328-23.573,27.346-39.109
							c4.393-13.6,3.303-26.708,2.673-40.666c-0.061-1.36-1.566-2.416-2.821-1.619c0,0-0.001,0-0.001,0.001
							c0.94,0.54,1.881,1.079,2.821,1.619c0-0.001,0-0.003,0.001-0.004c-1.228,0.166-2.455,0.332-3.683,0.499
							c0,0.001,0,0.002,0.001,0.003c0.305,1.446,2.158,1.726,3.134,0.827c10.03-9.244,19.807-17.551,26.283-29.886
							c7.758-14.778,8.482-31.544,8.571-47.898c0.008-1.385-1.611-2.386-2.821-1.619C415.182-45.619,405.004-36.84,398.024-25.297
							c-1.252,2.07,1.989,3.957,3.238,1.893c6.652-11,16.347-19.315,27.115-26.139c-0.94-0.54-1.881-1.079-2.821-1.619
							c-0.088,16.232-0.744,32.884-8.813,47.401C410.41,7.633,401.192,15.315,391.8,23.97c1.045,0.276,2.089,0.552,3.134,0.827
							c0-0.001,0-0.002-0.001-0.003c-0.468-2.22-3.479-1.459-3.683,0.498c0,0.001,0,0.003-0.001,0.004
							c-0.148,1.421,1.7,2.33,2.821,1.619c0,0,0.001,0,0.001-0.001c-0.94-0.54-1.881-1.079-2.821-1.619
							c0.589,13.062,1.738,25.248-2.047,38.074c-4.61,15.621-15.72,27.675-26.874,39.049c1.045,0.276,2.089,0.552,3.134,0.827
							c-3.547-15.579-4.148-31.629,2.24-46.566c0.68-1.59-0.801-3.638-2.565-2.565c-19.387,11.785-41.195,10.513-62.27,4.247
							c0.276,1.045,0.552,2.089,0.827,3.134c11.385-12.494,23.477-25.19,39.606-31.33c1.394-0.531,1.996-2.616,0.448-3.427
							c-21.974-11.506-40.613-28.333-55.167-48.349c-0.54,0.941-1.079,1.881-1.619,2.821c23.955,1.054,48.471,1.583,71.233,9.879
							c1.276,0.465,2.812-1.01,2.306-2.306c-6.758-17.335-4.658-35.572,0.544-53.035c-1.045,0.276-2.089,0.552-3.134,0.827
							c15.979,14.549,30.561,29.74,34.513,51.77c0.35,1.951,3.079,1.606,3.616,0c1.376-4.117,3.081-7.978,5.219-11.75
							C402.454-25.507,399.215-27.399,398.024-25.297z"/>
					</g>
				</g>
			</g>
			<g>
				<g>
					<path style="fill:#222221;" d="M1348.244,221.777c2.95,15.66-10.835,29.099-23.341,35.79
						c-6.023,3.223-12.758,4.474-18.741,7.597c-3.101,1.619-7.104,4.719-6.104,8.711c0.985,3.932,6.052,5.935,9.192,7.631
						c5.91,3.192,12.961,10.981,8.811,18.083c-5.648,9.665-17.823,4.113-24.881-0.096c-4.102-2.446-8.286-4.967-13.252-4.388
						c-3.505,0.409-6.572,2.435-7.068,6.143c-0.622,4.656,3.256,8.396,6.311,11.339c6.05,5.826,21.097,16.996,11.86,25.428
						c-13.137,11.991-33.425-3.73-43.631-12.407c-12.744-10.836-24.725-23.714-33.92-37.736c-2.92-4.452-4.327-9.735-5.676-14.845
						c-2.132-8.074-3.464-16.339-4.486-24.62c-1.016-8.234-1.742-16.52-1.615-24.824c0.134-8.775,0.874-18.619,5.461-26.345
						c2.162-3.641,5.301-6.543,9.446-7.687c6.21-1.713,10.015,1.058,12.013,6.977c2.679,7.935,1.849,16.383,4.039,24.379
						c1.632,5.957,7.352,11.311,12.836,5.36c5.398-5.858,3.799-16.358,5.935-23.521c2.018-6.767,8.755-10.691,15.7-7.934
						c8.684,3.447,7.013,11.429,7.803,18.9c0.423,3.996,1.922,9.32,6.532,10.147c4.571,0.82,8.664-2.983,12.133-5.312
						c11.771-7.904,27.736-15.258,41.88-9.687C1341.399,211.191,1346.559,215.464,1348.244,221.777
						c0.621,2.329,4.24,1.341,3.616-0.997c-2.862-10.725-13.985-16.709-24.448-17.621c-15.229-1.327-28.102,8.098-40.407,15.401
						c-9.952,5.907-7.976-9.539-8.755-15.072c-0.798-5.67-4.516-10.205-9.876-12.262c-10.34-3.968-19.068,3.128-21.143,12.959
						c-1.028,4.868-1.129,9.916-2.363,14.741c-1.24,4.849-5.747,9.111-8.175,2.351c-3.08-8.576-1.585-18.142-4.823-26.798
						c-3.293-8.801-11.138-11.467-19.527-7.298c-7.577,3.766-11.095,12.226-12.747,20.065c-1.965,9.321-1.93,19.035-1.283,28.497
						c0.857,12.545,2.527,25.246,5.654,37.428c1.407,5.48,2.869,11.306,5.961,16.105c1.87,2.903,3.935,5.683,6.042,8.417
						c5.661,7.348,11.807,14.338,18.361,20.902c11.605,11.621,28.458,27.784,46.234,27.341c6.51-0.162,14.557-3.913,16.972-10.427
						c3.458-9.328-8.571-18.747-14.335-24.277c-2.184-2.095-6.02-4.903-6.58-8.059c-0.862-4.863,5.179-4.823,8.211-3.85
						c7.386,2.371,12.714,8.439,20.794,9.297c12.146,1.291,21.224-9.798,15.274-20.953c-2.917-5.469-7.533-8.032-12.684-10.955
						c-1.117-0.634-2.867-1.43-3.614-2.478c-1.668-2.337,0.372-4,2.281-5.184c3.354-2.081,7.374-2.764,11.031-4.129
						c13.189-4.924,25.782-13.856,31.647-27.017c2.441-5.478,3.416-11.206,2.301-17.127
						C1351.414,218.412,1347.799,219.415,1348.244,221.777z"/>
				</g>
				<g>
					<path style="fill:#222221;" d="M1320.136,229.899c-31.449,13.504-62.877,26.96-93.789,41.67
						c-2.178,1.036-0.277,4.271,1.893,3.238c30.911-14.71,62.339-28.166,93.789-41.67
						C1324.24,232.188,1322.332,228.956,1320.136,229.899L1320.136,229.899z"/>
				</g>
				<g>
					<path style="fill:#222221;" d="M1260.113,218.863c-1.775,14.262-5.101,28.216-9.857,41.775c-0.8,2.282,2.821,3.263,3.616,0.997
						c4.872-13.892,8.173-28.166,9.991-42.772C1264.16,216.474,1260.408,216.495,1260.113,218.863L1260.113,218.863z"/>
				</g>
				<g>
					<path style="fill:#222221;" d="M1292.398,277.797c-12.599-7.578-25.916-13.739-39.835-18.47
						c-2.29-0.778-3.273,2.842-0.997,3.616c13.621,4.629,26.612,10.678,38.939,18.092
						C1292.578,282.282,1294.466,279.041,1292.398,277.797L1292.398,277.797z"/>
				</g>
				<g>
					<path style="fill:#222221;" d="M1214.831,214.394c0.942,21.887,2.225,44.955,12.066,64.958
						c9.922,20.166,27.833,35.217,44.891,49.199c1.852,1.518,4.52-1.12,2.652-2.652c-16.571-13.583-34.01-28.115-43.871-47.572
						c-9.916-19.564-11.063-42.435-11.988-63.933C1218.477,211.99,1214.727,211.977,1214.831,214.394L1214.831,214.394z"/>
				</g>
			</g>
			<g>
				<g>
					<path style="fill:#222221;" d="M310.687,669.386c-6.841-2.572-10.593-10.561-13.771-16.668
						c-2.18-4.189-4.298-8.413-6.308-12.686c-0.794-1.688-1.574-3.384-2.328-5.091c-0.837-1.896-3.517-5.881-3.315-8.027
						c0.436-4.636,10.186-3.864,13.802-4.01c5.399-0.219,10.835,0.052,16.182,0.831c8.513,1.24,16.978,3.616,24.952,6.825
						c3.727,1.5,10.138,3.518,13.012,6.504c3.196,3.321,1.012,4.36-1.118,6.59c-3.638,3.809-7.431,7.477-11.389,10.952
						C333.362,660.787,321.08,672.169,310.687,669.386c-2.334-0.625-3.329,2.991-0.997,3.616c9.942,2.662,20.456-5.33,27.742-11.059
						c4.85-3.814,9.419-7.986,13.787-12.342c2.329-2.322,7.322-6.04,7.785-9.511c0.862-6.46-11.268-10.255-15.637-12.124
						c-8.735-3.736-18.021-6.439-27.422-7.848c-8.919-1.337-17.993-1.364-26.916-0.043c-2.434,0.36-6.06,0.478-7.574,2.856
						c-1.656,2.601,0.227,5.9,1.229,8.361c3.617,8.884,7.828,17.598,12.422,26.019c3.425,6.279,7.585,13.059,14.584,15.69
						C311.952,673.852,312.929,670.229,310.687,669.386z"/>
				</g>
				<g>
					<path style="fill:#222221;" d="M248.677,538.932c-3.429-5.588-7.912-10.422-11.341-16.009
						c-0.456-0.743-1.286-1.041-2.117-0.862c-16.738,3.617-32.958,11.928-47.035,21.51c-5.064,3.447-20.648,12.787-17.24,20.869
						c1.227,2.911,3.85,5.521,5.899,7.853c3.645,4.147,7.526,8.089,11.46,11.96c9.888,9.729,20.246,19.04,31.103,27.678
						c7.267,5.782,15.986,13.747,25.291,15.981c7.412,1.779,15.909-5.334,21.44-9.273c11.17-7.957,21.617-16.986,31.659-26.309
						c8.069-7.49,16.479-15.219,23.057-24.103c1.926-2.601,3.483-4.942,2.394-8.243c-1.806-5.478-7.518-9.768-11.881-13.106
						c-15.1-11.55-33.837-20.803-52.468-24.816c-0.834-0.18-1.664,0.123-2.117,0.862c-3.429,5.588-7.912,10.422-11.341,16.009
						c-1.266,2.063,1.976,3.948,3.238,1.893c3.429-5.588,7.912-10.422,11.341-16.009c-0.706,0.287-1.412,0.574-2.117,0.862
						c15.83,3.41,31.112,10.758,44.632,19.558c4.724,3.075,20.632,12.398,16.344,19.31c-4.775,7.698-12.335,14.261-18.803,20.477
						c-9.084,8.729-18.555,17.107-28.479,24.871c-4.41,3.45-8.931,6.801-13.685,9.768c-2.862,1.786-6.255,4.12-9.663,4.681
						c-6.496,1.07-14.851-6.514-19.608-10.013c-18.236-13.414-36.334-29.246-50.857-46.681c-1.636-1.965-4.072-4.272-3.283-6.46
						c1.927-5.34,9.233-9.911,13.57-12.986c14.278-10.122,30.954-18.81,48.147-22.525c-0.706-0.287-1.412-0.574-2.117-0.862
						c3.429,5.588,7.912,10.422,11.341,16.009C246.7,542.878,249.944,540.996,248.677,538.932z"/>
				</g>
				<g>
					<path style="fill:#222221;" d="M245.618,626.196c1.099,26.809,6.813,53.355,19.366,77.213c1.124,2.137,4.362,0.243,3.238-1.893
						c-12.242-23.266-17.782-49.18-18.854-75.32C249.269,623.791,245.519,623.779,245.618,626.196L245.618,626.196z"/>
				</g>
				<g>
					<path style="fill:#222221;" d="M202.215,563.332c13.577,21.883,28.623,42.782,43.223,63.982
						c1.159,1.682,4.032,0.703,3.427-1.445c-7.496-26.604-12.208-53.942-18.941-80.743c-0.588-2.339-4.205-1.348-3.616,0.997
						c6.732,26.801,11.445,54.138,18.941,80.743c1.142-0.482,2.285-0.963,3.427-1.445c-14.599-21.2-29.645-42.098-43.223-63.982
						C204.184,559.392,200.938,561.273,202.215,563.332L202.215,563.332z"/>
				</g>
				<g>
					<path style="fill:#222221;" d="M260.796,554.062c-5.809,23.778-10.971,47.761-15.546,71.807
						c-0.402,2.112,2.187,3.211,3.427,1.445c14.969-21.323,28.752-43.445,43.559-64.878c1.375-1.99-1.874-3.867-3.238-1.893
						c-14.807,21.433-28.591,43.555-43.559,64.878c1.142,0.482,2.285,0.963,3.427,1.445c4.575-24.046,9.737-48.029,15.547-71.807
						C264.984,552.715,261.369,551.715,260.796,554.062L260.796,554.062z"/>
				</g>
				<g>
					<path style="fill:#222221;" d="M300.012,636.905c3.843,11.523,8.443,23.484,10.072,35.587c0.238,1.765,2.622,1.598,3.427,0.448
						c6.896-9.857,14.864-18.731,22.73-27.803c1.574-1.815-1.067-4.479-2.652-2.652c-8.077,9.315-16.237,18.443-23.317,28.562
						c1.142,0.149,2.285,0.299,3.427,0.448c-1.629-12.101-6.23-24.068-10.072-35.587
						C302.868,633.63,299.245,634.606,300.012,636.905L300.012,636.905z"/>
				</g>
				<g>
					<path style="fill:#222221;" d="M319.043,633.273c-6.006,22.589-11.132,45.393-15.371,68.379
						c-0.435,2.359,3.178,3.371,3.616,0.997c4.239-22.986,9.365-45.791,15.371-68.379
						C323.28,631.935,319.664,630.939,319.043,633.273L319.043,633.273z"/>
				</g>
			</g>
			<g>
				<path style="fill:#EDC766;" d="M490.217,677.078c3.766-6.31,15.039-9.039,21.598-10.646c8.97-2.197,18.34-4.251,27.289-5.405
					c1.146-0.148,2.454-0.223,3.305,0.558c0.848,0.779,0.887,2.084,0.834,3.234c-0.542,11.702-3.547,23.403-8.584,33.972
					c-5.232,10.977-12.288,21.895-21.141,30.322c-1.045,0.995-2.741,1.522-4.03,0.874c-0.642-0.323-1.084-0.933-1.49-1.527
					C502.205,719.983,482.895,689.348,490.217,677.078z"/>
				<g>
					<path style="fill:#EDC766;" d="M491.836,678.025c4.098-6.083,12.787-7.876,19.46-9.534c8.729-2.169,17.581-4.273,26.512-5.412
						c4.15-0.529,3.614,1.99,3.325,5.251c-0.244,2.761-0.629,5.508-1.153,8.23c-0.779,4.048-1.831,8.042-3.155,11.946
						c-2.967,8.752-7.372,17.09-12.522,24.75c-2.592,3.856-5.435,7.538-8.589,10.952c-1.505,1.629-4.022,4.8-6.425,2.822
						c-0.621-0.511-1.118-1.674-1.556-2.347c-2.804-4.307-5.439-8.729-7.867-13.259
						C495.333,702.969,486.568,687.724,491.836,678.025c1.152-2.121-2.085-4.016-3.238-1.893
						c-5.012,9.229,0.501,21.548,4.486,30.122c2.654,5.709,5.73,11.222,9.036,16.576c1.839,2.977,4.301,8.876,8.255,9.25
						c2.957,0.28,4.976-2.066,6.838-3.996c3.047-3.158,5.817-6.58,8.382-10.138c5.06-7.019,9.337-14.681,12.66-22.67
						c3.572-8.584,5.804-17.684,6.626-26.945c0.612-6.883-0.868-9.892-8.072-8.867c-10.059,1.431-20.095,3.61-29.897,6.28
						c-6.761,1.842-14.223,4.313-18.315,10.389C487.246,678.139,490.493,680.018,491.836,678.025z"/>
				</g>
			</g>
			<g>
				<path style="fill:#EDC766;" d="M428.685,759.737c0.113-6.18-1.468-13.393-1.355-19.572c-24.344-8.704-69.499-7.853-74.27-0.021
					c-3.338,5.478,18.812,86.257,30.622,93.452c11.933,7.27,93.302-9.415,97.093-15.637c5.487-9.006-15.177-48.35-34.074-65.993
					C441.26,754.901,434.125,756.803,428.685,759.737z"/>
				<g>
					<path style="fill:#EDC766;" d="M430.56,759.737c-0.021-6.556-1.334-13.016-1.355-19.572c-0.003-0.87-0.588-1.534-1.376-1.808
						c-15.968-5.551-33.877-6.893-50.673-6.133c-6.454,0.292-13.333,0.765-19.481,2.909c-2.806,0.978-5.969,2.378-6.702,5.511
						c-0.696,2.973,0.286,6.695,0.781,9.62c0.932,5.508,2.208,10.961,3.562,16.379c3.402,13.615,7.446,27.116,12.278,40.293
						c3.185,8.685,6.523,20.094,13.31,26.792c5.324,5.254,16.011,3.689,22.677,3.227c13.483-0.934,26.916-3.166,40.155-5.828
						c11.06-2.224,22.582-4.46,33.076-8.726c2.921-1.187,5.563-2.318,6.417-5.599c1.524-5.854-1.406-12.993-3.533-18.304
						c-7.006-17.499-17.959-34.84-31.67-47.856c-0.634-0.602-1.511-0.683-2.272-0.293c-5.834,2.987-12.179,4.783-18.015,7.77
						c-2.149,1.1-0.254,4.337,1.893,3.238c5.834-2.987,12.179-4.783,18.015-7.77c-0.757-0.098-1.515-0.195-2.272-0.293
						c11.74,11.144,20.965,25.395,27.929,39.94c2.483,5.187,11.271,21.409,3.62,25.064c-8.307,3.969-18.086,5.737-27.008,7.702
						c-12.464,2.745-25.08,4.996-37.767,6.415c-5.225,0.584-10.483,1.044-15.743,1.102c-3.384,0.037-7.69,0.317-10.871-1.102
						c-2.604-1.162-4.123-3.957-5.49-6.329c-2.514-4.362-4.51-9.034-6.374-13.702c-4.544-11.383-8.258-23.112-11.584-34.903
						c-2.839-10.064-5.703-20.346-7.113-30.729c-0.375-2.763-1.214-5.441,1.153-6.87c5.213-3.147,12.727-3.4,18.603-3.775
						c17.248-1.099,35.693,0.164,52.102,5.868c-0.459-0.603-0.918-1.205-1.377-1.808c0.021,6.556,1.334,13.016,1.355,19.572
						C426.818,762.15,430.568,762.155,430.56,759.737z"/>
				</g>
			</g>
			<g>
				<path style="fill:#EDC766;" d="M1110.438-18.583c-5.731,2.314-11.75,6.592-17.482,8.906
					c1.515,25.809,19.967,67.03,29.042,68.357c6.347,0.928,72.018-51.064,74.019-64.748c2.022-13.826-45.172-82.178-52.381-83.233
					c-10.434-1.526-38.557,32.886-47.398,57.18C1101.067-28.263,1105.609-22.441,1110.438-18.583z"/>
				<g>
					<path style="fill:#EDC766;" d="M1109.491-20.202c-6.025,2.585-11.457,6.321-17.482,8.906c-0.557,0.239-0.968,1.033-0.929,1.619
						c1.145,16.911,6.839,33.771,14.071,49.001c2.838,5.977,6.016,12.194,10.491,17.14c2.032,2.246,4.66,4.606,7.881,3.89
						c3.055-0.679,6.09-2.99,8.654-4.654c4.767-3.095,9.356-6.467,13.881-9.904c11.046-8.39,21.761-17.277,31.878-26.77
						c6.646-6.235,16.112-13.916,19.357-22.792c2.565-7.015-3.02-16.137-6.079-22.141c-6.221-12.21-13.657-23.842-21.422-35.118
						c-6.274-9.111-12.74-18.732-20.662-26.526c-2.296-2.259-4.374-4.105-7.77-3.504c-5.947,1.052-11.296,6.444-15.373,10.505
						c-13.368,13.316-24.946,30.223-31.557,47.93c-0.213,0.57,0.014,1.434,0.482,1.824c5.033,4.202,9.167,9.337,14.2,13.538
						c1.84,1.536,4.507-1.103,2.652-2.652c-3.809-3.18-7.057-6.903-10.623-10.338c-2.648-2.551-2.999-1.906-1.502-5.378
						c0.843-1.956,1.768-3.879,2.735-5.777c3.967-7.785,8.733-15.184,13.971-22.172c4.751-6.337,9.956-12.498,15.921-17.734
						c2.381-2.09,7.623-7.086,11.235-6.072c2.499,0.702,5.171,4.756,6.752,6.59c3.658,4.246,7.048,8.722,10.349,13.248
						c7.714,10.576,14.95,21.543,21.527,32.862c2.971,5.112,5.83,10.311,8.29,15.691c1.552,3.396,3.695,7.592,3.769,11.427
						c0.058,3.016-2.03,5.65-3.775,7.951c-3.137,4.136-6.815,7.89-10.501,11.533c-9.351,9.242-19.413,17.792-29.715,25.95
						c-7.934,6.283-16.173,13.099-25.212,17.771c-3.505,1.812-4.846,0.422-7.454-2.73c-5.094-6.157-8.599-13.883-11.694-21.181
						c-3.795-8.95-6.886-18.263-8.977-27.761c-0.603-2.739-3.133-10.656-1.52-12.65c1.295-1.599,5.477-2.822,7.302-3.836
						c2.87-1.594,5.72-3.157,8.741-4.453C1113.595-17.913,1111.687-21.144,1109.491-20.202z"/>
				</g>
			</g>
			<g>
				<g>
					<path style="fill:#222221;" d="M464.169,807.637c-3.387-3.844-2.28-8.177-2.815-12.795c-0.506-4.36-1.321-8.75-2.002-13.093
						c-1.133-7.223-3.352-14.463-7.586-20.504c-6.576-9.381-20.356-16.662-31.67-11.448c-5.095,2.348-9.432,7.132-10.31,12.789
						c-0.899,5.798,2.413,11.502,3.225,17.155c0.323,2.247,0.648,9.759-3.118,9.094c-1.969-0.347-4.276-4.097-5.266-5.502
						c-2.298-3.259-4.063-6.878-6.404-10.099c-5.91-8.13-21.066-19.458-29.095-7.432c-3.332,4.991-2.655,11.389-0.502,16.691
						c1.293,3.184,3.177,5.978,5.223,8.719c2.732,3.659,7.207,8.051,5.285,12.738c-1.235,3.013-1.915,2.099-4.115,0.305
						c-0.865-0.705-1.66-1.51-2.44-2.305c-1.805-1.84-3.391-3.88-5.181-5.731c-3.78-3.909-8.787-7.385-13.926-9.192
						c-10.602-3.729-23.308,5.052-18.5,16.893c2.31,5.69,7.538,8.387,11.236,12.813c1.152,1.379,1.704,0.598,0.337,1.862
						c-0.786,0.726-2.561,0.887-3.596,1.122c-2.313,0.526-4.678,0.796-6.999,1.29c-9.392,1.996-26.957,6.096-28.108,18.242
						c-1.124,11.857,12.981,18.299,22.56,20.117c6.755,1.282,13.44,1.038,20.124-0.497c1.661-0.381,6.398-2.36,8.077-1.53
						c2.163,1.069-1.049,6.559-1.64,8.293c-3.102,9.108-2.688,19.831,8.141,22.846c11.961,3.33,21.109-6.543,24.48-17.03
						c1.599-4.973,4.346-15.983,10.668-8.923c3.228,3.605,4.863,8.382,6.93,12.671c4.391,9.109,15.618,18.033,25.219,9.929
						c10.668-9.004,6.373-25.448,2.751-36.63c0.005,0.016-1.177-2.962-1.042-3.235c0.604-1.221,0.29-0.723,1.328-0.349
						c1.147,0.413,2.443,2.342,3.282,3.269c2.155,2.379,4.124,4.917,6.196,7.367c3.703,4.377,7.776,8.799,13.143,11.113
						c9.474,4.086,19.907,0.199,24.746-8.8c6.068-11.284,2.06-23.657-4.742-33.593C473.976,818.296,469.02,812.983,464.169,807.637
						c-1.625-1.791-4.271,0.867-2.652,2.652c8.885,9.791,21.516,22.074,20.594,36.502c-0.829,12.982-13.237,22.796-25.366,14.926
						c-4.848-3.145-8.427-7.924-12.07-12.316c-2.429-2.929-5.836-8.262-9.857-9.073c-4.524-0.913-5.011,3.518-4.069,6.736
						c2.262,7.726,5.483,15.295,4.486,23.526c-0.826,6.813-4.823,15.196-13.054,13.739c-6.355-1.125-10.105-7.369-12.551-12.781
						c-2.469-5.464-7.022-16.866-14.918-15.229c-4.086,0.847-5.803,5.26-7.07,8.777c-2.101,5.833-3.376,11.605-8.051,16.104
						c-4.919,4.734-15.242,6.503-19.419-0.324c-2.66-4.347-0.987-10.345,0.588-14.779c1.054-2.967,4.402-7.538,2.118-10.665
						c-1.864-2.554-5.806-1.901-8.456-1.376c-7.507,1.487-14.157,3.153-21.883,1.897c-5.93-0.964-12.477-3.116-16.917-7.34
						c-15.134-14.398,13.652-22.604,23.194-24.376c3.402-0.632,16.925-2.657,11.609-9.062c-1.243-1.498-3.469-2.569-4.915-3.919
						c-2.892-2.701-6.409-5.912-7.471-9.851c-1.253-4.649,1.705-9.736,6.231-11.246c3.949-1.318,8.162,0.195,11.642,2.09
						c4.478,2.439,8.011,5.711,11.359,9.468c2.587,2.905,5.677,6.737,9.55,7.972c3.493,1.113,6.509-0.856,7.162-4.46
						c1.027-5.664-3.227-11.056-6.39-15.243c-4.246-5.619-10.165-14.662-5.565-21.725c6.008-9.224,17.111-0.041,21.953,5.665
						c4.653,5.483,7.163,14.727,13.947,18.136c8.69,4.367,9.423-10.127,8.392-15.071c-1.281-6.145-4.833-12.3-1.089-18.275
						c4.557-7.273,13.518-7.945,20.888-5.213c16.465,6.102,18.656,23.933,21.036,38.964c1.043,6.588-0.311,12.521,4.361,17.823
						C463.116,812.103,465.76,809.443,464.169,807.637z"/>
				</g>
				<g>
					<path style="fill:#222221;" d="M337.603,841.923c58.079-2.884,114.523-21.896,163.476-53.084
						c2.029-1.293,0.151-4.54-1.893-3.238c-48.396,30.833-104.153,49.719-161.583,52.572
						C335.202,838.292,335.187,842.043,337.603,841.923L337.603,841.923z"/>
				</g>
				<g>
					<path style="fill:#222221;" d="M378.448,858.772c2.844-8.676,6.87-16.614,11.9-24.216c1.336-2.018-1.911-3.898-3.238-1.893
						c-5.2,7.858-9.342,16.155-12.278,25.112C374.079,860.073,377.699,861.058,378.448,858.772L378.448,858.772z"/>
				</g>
				<g>
					<path style="fill:#222221;" d="M397.094,809.362c11.403,6.395,23.681,10.67,36.604,12.676c2.361,0.366,3.378-3.247,0.997-3.616
						c-12.611-1.957-24.573-6.052-35.708-12.298C396.879,804.942,394.986,808.18,397.094,809.362L397.094,809.362z"/>
				</g>
			</g>
			<g>
				<g>
					<path style="fill:#222221;" d="M-3.741,791.817c3.306-3.267,6.202-6.808,8.817-10.645c-1.165-0.315-2.329-0.631-3.494-0.946
						c-2.236,22.925,7.854,42.18,19.615,61.082c0.759,1.22,2.476,1.202,3.238,0c10.077-15.879,17.327-33.681,15.485-52.79
						c-0.94,0.54-1.881,1.079-2.821,1.619c19.893,14.357,43.713,21.654,66.764,29.282c1.294,0.428,2.795-0.98,2.307-2.306
						c-8.779-23.825-22.38-45.69-40.872-63.196c-0.442,1.067-0.884,2.134-1.326,3.201c17.941-1.624,33.499-10.531,48.512-19.863
						c1.22-0.758,1.202-2.476,0-3.238c-19.42-12.309-41.125-19.567-63.961-13.262c0.608,1.045,1.216,2.089,1.824,3.134
						c10.892-13.475,15.082-29.804,15.954-46.863c0.074-1.451-1.639-2.295-2.821-1.619c-13.944,7.974-27.984,16.682-37.038,30.334
						c-7.853,11.84-10.356,24.723-13.532,38.254c-0.317,1.352,0.888,2.73,2.306,2.306c0,0,0.001,0,0.001,0
						c-0.769-0.769-1.538-1.538-2.307-2.307c0,0.001-0.001,0.003-0.002,0.004c1.228,0.166,2.455,0.332,3.683,0.499
						c0-0.001,0-0.002,0-0.003c0.102-1.509-1.645-2.215-2.821-1.619c-12.39,6.278-24.323,11.77-33.965,22.187
						c-11.123,12.018-16.262,27.743-20.716,43.169c-0.392,1.357,0.94,2.713,2.306,2.307
						C-25.773,806.719-13.602,801.028-3.741,791.817c1.768-1.651-0.888-4.298-2.652-2.652c-9.39,8.77-20.996,14.121-33.208,17.755
						c0.769,0.769,1.538,1.538,2.306,2.306c4.423-15.319,9.465-30.98,20.843-42.664c9.312-9.562,20.465-14.548,32.114-20.451
						c-0.941-0.54-1.881-1.079-2.821-1.619c0,0.001,0,0.002,0,0.003c-0.155,2.276,2.96,2.311,3.683,0.498
						c0.001-0.001,0.001-0.003,0.002-0.004c0.539-1.353-1.042-2.684-2.306-2.306c0,0-0.001,0-0.001,0
						c0.769,0.769,1.538,1.538,2.306,2.307c2.978-12.685,5.191-24.761,12.294-36.026c8.705-13.805,22.696-22.396,36.552-30.32
						c-0.94-0.54-1.881-1.079-2.821-1.619c-0.816,15.97-4.637,31.57-14.855,44.212c-1.112,1.375-0.122,3.671,1.824,3.134
						c21.9-6.047,42.49,1.107,61.072,12.884c0-1.079,0-2.159,0-3.238c-14.374,8.935-29.416,17.793-46.619,19.351
						c-1.523,0.138-2.594,2-1.326,3.201c18.014,17.054,31.351,38.321,39.907,61.541c0.769-0.769,1.538-1.538,2.306-2.306
						c-22.77-7.536-46.219-14.723-65.868-28.905c-1.107-0.799-2.952,0.26-2.821,1.619c1.785,18.521-5.211,35.514-14.973,50.898
						c1.079,0,2.159,0,3.238,0c-11.422-18.359-21.278-36.892-19.103-59.189c0.196-2.007-2.55-2.332-3.494-0.946
						c-2.444,3.587-5.147,6.839-8.231,9.886C-8.111,790.865-5.46,793.516-3.741,791.817z"/>
				</g>
				<g>
					<path style="fill:#222221;" d="M39.218,760.619c-22.86-21.267-49.077-38.28-77.744-50.639
						c-2.193-0.945-4.105,2.284-1.893,3.238c28.377,12.235,54.35,28.996,76.985,50.053C38.332,764.913,40.99,762.267,39.218,760.619
						L39.218,760.619z"/>
				</g>
			</g>
			<g>
				<g>
					<path style="fill:#222221;" d="M445.486,506.08c1.134,27.464,15.18,60.007,41.493,72.148
						c12.196,5.627,24.707,4.404,34.506-5.02c9.807-9.432,14.437-23.207,16.273-36.383c2.393-17.17-0.24-34.47-7.119-50.336
						c-0.378-0.873-1.815-1.212-2.565-0.673c-10.905,7.84-25.669,11.204-38.536,14.16c-13.091,3.007-28.192,6.523-41.679,4.297
						c-2.361-0.39-3.376,3.223-0.997,3.616c13.782,2.275,28.972-1.001,42.393-4.006c13.541-3.033,29.23-6.573,40.711-14.828
						c-0.855-0.224-1.71-0.448-2.565-0.673c6.973,16.083,9.303,34.1,6.109,51.381c-2.676,14.477-10.16,33.449-26.078,37.712
						c-17.537,4.696-34.334-11.9-43.131-24.945c-9.285-13.767-14.381-29.889-15.065-46.449
						C449.137,503.675,445.386,503.662,445.486,506.08z"/>
				</g>
				<g>
					<path style="fill:#222221;" d="M480.455,463.587c-11.295,2.731-22.305,7.694-30.878,15.685
						c-5.789,5.396-11.237,13.073-10.504,21.394c0.888,10.07,16.492,8.048,23.382,7.489c15.586-1.266,31.227-4.674,46.089-9.489
						c6.153-1.993,12.398-4.234,18.037-7.443c3.026-1.722,7.239-4.233,8.079-7.941c1.731-7.636-8.433-14.511-14.097-17.077
						C508.087,460.552,493.601,460.725,480.455,463.587c-2.357,0.513-1.36,4.129,0.997,3.616
						c11.343-2.469,23.526-2.752,34.585,1.202c4.016,1.436,8.029,3.509,11.051,6.576c1.569,1.593,4.558,5.089,3.873,7.603
						c-0.762,2.795-5.143,4.814-7.419,6.027c-4.806,2.56-9.965,4.452-15.126,6.155c-12.639,4.17-25.8,7.174-38.998,8.895
						c-5.33,0.695-10.737,1.203-16.117,1.072c-2.583-0.063-7.647,0.135-9.67-1.95c-1.657-1.707-0.848-5.51-0.32-7.509
						c1.173-4.433,3.993-8.331,7.129-11.594c8.262-8.597,19.572-13.711,31.012-16.477
						C483.796,466.636,482.803,463.019,480.455,463.587z"/>
				</g>
				<g>
					<path style="fill:#222221;" d="M551.388,574.406c-1.883,10.41-1.794,21.546,1.964,31.564
						c2.687,7.162,7.969,14.94,15.712,17.242c18.587,5.526,35.199-15.448,41.651-29.988c0.774-1.744-0.798-3.381-2.565-2.565
						c-8.53,3.935-20.245,0.849-28.689-1.802c-8.509-2.671-19.717-6.878-24.645-14.898c-1.261-2.053-4.506-0.171-3.238,1.893
						c5.499,8.95,17.338,13.624,26.886,16.622c9.586,3.009,21.989,5.848,31.579,1.424c-0.855-0.855-1.71-1.71-2.565-2.565
						c-5.768,13-18.56,30.335-34.799,28.733c-8.338-0.823-13.717-9.226-16.191-16.456c-3.084-9.013-3.161-18.915-1.482-28.204
						C555.43,573.044,551.817,572.032,551.388,574.406z"/>
				</g>
				<g>
					<path style="fill:#222221;" d="M482.066,442.47c-4.857,9.056-5.933,19.186-3,29.043c0.687,2.308,4.307,1.325,3.616-0.997
						c-2.652-8.913-1.777-17.949,2.622-26.154C486.444,442.237,483.208,440.34,482.066,442.47L482.066,442.47z"/>
				</g>
				<g>
					<path style="fill:#222221;" d="M593.41,543.447c-16.151-4.513-33.357,4.525-40.727,19.263
						c-2.092,4.183-3.627,8.304-1.359,12.683c2.017,3.896,5.796,6.784,9.407,9.106c10.018,6.441,22.437,10.355,34.271,11.344
						c8.776,0.734,18.684-0.426,20.869-10.339C619.668,568.281,610.483,549.134,593.41,543.447
						c-2.295-0.765-3.279,2.856-0.997,3.616c13.552,4.514,21.444,18.874,20.494,32.789c-0.312,4.571-0.879,9.212-5.472,11.128
						c-3.431,1.431-7.466,1.417-11.11,1.205c-9.525-0.553-19.24-3.451-27.785-7.63c-5.222-2.554-15.416-7.619-14.618-14.775
						c0.817-7.326,8.239-14.859,14.04-18.649c7.311-4.777,16.007-6.428,24.451-4.069
						C594.741,547.713,595.735,544.096,593.41,543.447z"/>
				</g>
				<g>
					<path style="fill:#222221;" d="M592.374,555.464c2.004-6.236,5.308-11.983,7.312-18.219c0.74-2.303-2.879-3.289-3.616-0.997
						c-2.004,6.236-5.308,11.983-7.312,18.22C588.018,556.77,591.637,557.756,592.374,555.464L592.374,555.464z"/>
				</g>
			</g>
		</g>
	</g>
</g>
</svg>
